<svg xmlns="http://www.w3.org/2000/svg" xmlns:xlink="http://www.w3.org/1999/xlink" viewBox="0 0 859.58 599.16">
  <defs>
    <clipPath id="a8c43cd5-5d68-463d-8916-63df1cd3eac1" transform="translate(-31.47 -124.34)">
      <circle cx="361.5" cy="361.5" r="361.5" fill="none"/>
    </clipPath>
  </defs>
  <g id="fd6bf138-2fdc-461e-8dc8-41705460d038" data-name="Camada 2">
    <g id="b910306d-2207-456b-919b-65a2fc18e0f9" data-name="Camada 16">
      <g clip-path="url(#a8c43cd5-5d68-463d-8916-63df1cd3eac1)">
        <path d="M32.5,602.5s84,131,410,119,448-118,448-118-58-264-345-237Z" transform="translate(-31.47 -124.34)" fill="#8895b8" stroke="#000" stroke-miterlimit="10"/>
        <path d="M33,603H166.17l4.14-49.5s4.5,58.36-75.41,36.43C46,576,49,543,50,532Z" transform="translate(-31.47 -124.34)" fill="none" stroke="#000" stroke-miterlimit="10"/>
        <path d="M170,549c-7-19-92-50-119-17a28,28,0,0,0-.92,4.1C48.26,547.54,48.32,579.76,103,592,175,610,170.77,551.1,170,549Z" transform="translate(-31.47 -124.34)" fill="none" stroke="#000" stroke-miterlimit="10"/>
        <path d="M238.5,270.5s19,75,118,65c54,1,77-18,77-18s25,28,20,43l6-23,23,23v-16l11,10v-24s0-8,9-7,19,2,19,2l7-6s-30-13-16-31c0,0,0-6,27,3,0,0,1-8,6-10s-19-163-160-157-156,94-163,120l-5,31s-22,74,37,96C254.5,371.5,232.5,314.5,238.5,270.5Z" transform="translate(-31.47 -124.34)" fill="#23160d"/>
        <path d="M513.5,717.5c265-23,376-115,376-115s-15-154-48-181-161-48-161-48l-124-7S522.5,632.5,513.5,717.5Z" transform="translate(-31.47 -124.34)" fill="#2b2b2d"/>
        <path d="M416.5,722.5s-158,5-263-41c16-70,20-128,17-132s-9-7-9-7l9-27,88-54,2,14s9,13,91,40l11,8s5,12,10,16Z" transform="translate(-31.47 -124.34)" fill="#2b2b2d"/>
        <path d="M32.5,602.5c1.5-32.5,17-71,17-71s24-26,80-14c52.5,32.5,41.63,39,41.63,39S167,647,153.5,681.5C63,649,35,604,32.5,602.5Z" transform="translate(-31.47 -124.34)" fill="#2b2b2d" stroke="#000" stroke-miterlimit="10"/>
        <path d="M171.5,558.5c0,20.43-25,42-62,34-32.93-7.12-64-25-61-56,2-20.34,28-16,57-16C139.19,520.5,171.5,538.07,171.5,558.5Z" transform="translate(-31.47 -124.34)" fill="#8c8c8c" stroke="#000" stroke-miterlimit="10" opacity="0.38"/>
        <g id="a78ed6cd-8b7e-4ce5-8d6e-be10a0dc006c" data-name="gravata">
          <path d="M426,580l39,3s21.93-46.76,44-54.38L482,515l-32,16s-24,19-39,18C411,549,428,576,426,580Z" transform="translate(-31.47 -124.34)" fill="#191919" stroke="#000" stroke-miterlimit="10"/>
          <path d="M421,722c-14-79,5-142,5-142l39,3,34,134S445,722,421,722Z" transform="translate(-31.47 -124.34)" fill="#191919" stroke="#000" stroke-miterlimit="10"/>
        </g>
        <path d="M259,462l-90,56H76s-21,2-28,18c-7,17-12,41-16,66,47,60,181,124,384,120-5-40-44-182-44-182s-9-10-10-17l-16-9s-76-25-83-36S259,462,259,462Z" transform="translate(-31.47 -124.34)" fill="none" stroke="#000" stroke-miterlimit="10"/>
        <path d="M317,505l-40,28s50,180,52,185" transform="translate(-31.47 -124.34)" fill="none" stroke="#000" stroke-miterlimit="10"/>
        <path d="M384,581.5s9-32.5,16-32.5-11.56,1.34-27.28-6.33Z" transform="translate(-31.47 -124.34)" fill="none" stroke="#000" stroke-miterlimit="10"/>
        <path d="M482,516s53,26,53,29,14-117,18-130l-10-9-8,8s0,40-13,59S505,499,482,516Z" transform="translate(-31.47 -124.34)" fill="none" stroke="#000" stroke-miterlimit="10"/>
        <path d="M426,581l39,3s21.93-46.76,44-54.38L482,516l-32,16s-24,19-39,18C411,550,428,577,426,581Z" transform="translate(-31.47 -124.34)" fill="none" stroke="#000" stroke-miterlimit="10"/>
        <path d="M421,723c-14-79,5-142,5-142l39,3,34,134S445,723,421,723Z" transform="translate(-31.47 -124.34)" fill="none" stroke="#000" stroke-miterlimit="10"/>
        <path d="M685,375s124,16,157,47,48,181,48,181l-66,38s-29-77-40-83-36-18-36-18-46-63-59-64c0,0-8-10-8-17S685,375,685,375Z" transform="translate(-31.47 -124.34)" fill="none" stroke="#000" stroke-miterlimit="10"/>
        <path d="M640,584s41-105,49-108,59,64,59,64,35.7,17.35,38.85,20.18S825,635,824,641c0,0-148,70-311,77,10-81,40-303,40-303l10,11s8,95,45,119Z" transform="translate(-31.47 -124.34)" fill="none" stroke="#000" stroke-miterlimit="10"/>
        <path d="M146,592s-41,14-85-21c0,0,21-62,24-93s-11-88-8-93,59-65,62-68,71-45,78-41c-6.5,19.5-4,50,0,57s5,9,5,9l-42,24s42-19,44-18,18,13,18,13-36,44-41,50-13,22-13,24-4,59-18,81C162,542,146,583,146,592Z" transform="translate(-31.47 -124.34)" fill="#f2bc97"/>
        <path d="M639.5,583.5l49-108s-8-13-8-17,5-85,4-87-15-17-15-17l-15-7s-62-60-106-68c0,0-10,5-9,12l-25-6s-20,21,22,38l13,11s-51-20-56-7,12,23,24,22c0,0,28,18,31,19s36,32,36,32-34-24-39-25-31-14-35-5,5,19,5,19,4,6,27,17c0,0,19,16,20,19s12,105,43,117Z" transform="translate(-31.47 -124.34)" fill="#f2bc97"/>
        <path d="M500.5,499.5c18.61-22.33,36-39,35-86l7-7,14-79-21-6-27,28s-16-9-15-12,0,18,0,18l-12-11v16l-22-24-6,24s-3-30-20-44c0,0-18,25-117,17-62-6-78-63-78-63s-4,48,14,95,0,34,5,45,105,113,105,113,3,24,35,26,55-18,55-18S495.5,505.5,500.5,499.5Z" transform="translate(-31.47 -124.34)" fill="#f2bc97"/>
        <path d="M450.5,398.5v-4s93-91,96-92,33-10,33-10l5,3-35,12Z" transform="translate(-31.47 -124.34)" fill="#a8a8ad"/>
        <path d="M482.5,470.5c-1-1,0,5,0,5l60-70-3-1Z" transform="translate(-31.47 -124.34)" fill="#a8a8ad"/>
        <polygon points="218.03 268.16 221.03 265.16 141.03 171.16 135.03 175.16 218.03 268.16" fill="#a8a8ad"/>
        <polygon points="222.1 289.78 194.1 253.16 190.87 257.47 223.18 295.16 222.1 289.78" fill="#a8a8ad"/>
        <path d="M482.5,473.5s-2-3-12,2-16-37-18-47,4-32-5-39c0,0-35,32-106,38s-90-24-92-38,7,31,3,39,10,49,10,49,47,30,89,38c0,0,29,21,46,21S474.5,486.5,482.5,473.5Z" transform="translate(-31.47 -124.34)" fill="#333566"/>
        <path d="M310.5,434.5l17-10s-54-19-58-23c-2.24-2.24-11-8-11-8v20Z" transform="translate(-31.47 -124.34)" fill="#2b2b2d"/>
        <polygon points="320.03 301.16 324.03 312.16 384.03 287.16 416.03 265.16 375.03 265.16 320.03 301.16" fill="#2b2b2d"/>
        <g>
          <line x1="330.53" y1="297.66" x2="337.53" y2="312.66" fill="none" stroke="#d6d6d6" stroke-miterlimit="10"/>
          <line x1="337.53" y1="290.66" x2="352.53" y2="306.66" fill="none" stroke="#d6d6d6" stroke-miterlimit="10"/>
          <line x1="355.53" y1="286.66" x2="373.53" y2="300.66" fill="none" stroke="#d6d6d6" stroke-miterlimit="10"/>
          <line x1="367.53" y1="275.66" x2="375.53" y2="290.66" fill="none" stroke="#d6d6d6" stroke-miterlimit="10"/>
          <polyline points="396.53 278.66 379.53 269.66 380.53 290.66 375.53 268.66" fill="none" stroke="#d6d6d6" stroke-miterlimit="10"/>
          <polyline points="285.53 300.66 272.53 310.66 276.53 297.66 265.53 306.66" fill="none" stroke="#d6d6d6" stroke-miterlimit="10"/>
          <line x1="252.53" y1="300.66" x2="269.53" y2="297.66" fill="none" stroke="#d6d6d6" stroke-miterlimit="10"/>
          <line x1="227.53" y1="290.66" x2="236.53" y2="278.66" fill="none" stroke="#d6d6d6" stroke-miterlimit="10"/>
          <line x1="251.53" y1="304.66" x2="255.53" y2="293.66" fill="none" stroke="#d6d6d6" stroke-miterlimit="10"/>
          <line x1="230.53" y1="292.66" x2="243.53" y2="283.66" fill="none" stroke="#d6d6d6" stroke-miterlimit="10"/>
          <polyline points="251.53 286.66 238.53 300.66 238.53 281.66" fill="none" stroke="#d6d6d6" stroke-miterlimit="10"/>
        </g>
        <path d="M147,588s16-53,18-60,23-47,22-88c0,0-5-12,55-77,0,0-24-8-25-46,0,0-3-28,0-39,2.68-9.84-74,35-78,38s-43,52-59,64c-10,8,5,58,6,88S61,572,61,572s36,32,86,20C147.78,591.38,147,588,147,588Z" transform="translate(-31.47 -124.34)" fill="none" stroke="#000" stroke-miterlimit="10"/>
        <path d="M114,374s29-18,38-31,25-12,25-12,36.48-11.88,40.24-9.44" transform="translate(-31.47 -124.34)" fill="none" stroke="#000" stroke-miterlimit="10"/>
        <path d="M114,355s31-30,39-34,22-5,37-13,21.69-10.83,24-8" transform="translate(-31.47 -124.34)" fill="none" stroke="#000" stroke-miterlimit="10"/>
        <path d="M139,394s29-26,37-27,41.22-21.15,50.11-17.58" transform="translate(-31.47 -124.34)" fill="none" stroke="#000" stroke-miterlimit="10"/>
        <path d="M171,478s1-43-9-49c0,0,7-11,9-20,0,0,18-7,23-18,0,0,21-10,23-17,0,0,18.88-6.32,19.94-13.66" transform="translate(-31.47 -124.34)" fill="none" stroke="#000" stroke-miterlimit="10"/>
        <path d="M179.51,366s2.49,0,8.49-6,32.32-11.57,34.16-17.79" transform="translate(-31.47 -124.34)" fill="none" stroke="#000" stroke-miterlimit="10"/>
        <path d="M553,337s-12-9-16-14c0,0-39-13-25-34,0,0,3-10,41,10,0,0,38,19,44,24s35,33,35,33" transform="translate(-31.47 -124.34)" fill="none" stroke="#000" stroke-miterlimit="10"/>
        <path d="M540,292s0-14,13-12,59,33,59,33,32,21,39,32c0,0,5,4,9,5s10,4,11,6,8,9,10,11,8,5,2,36c0,0-5,52-1,59l7,14s-46,88-49,108c0,0-18-20-34-42,0,0-32-13-43-116,0,0-9-13-23-21s-32-12-30-33c0,0-2-10,26,0a150.57,150.57,0,0,0,17,8c8,3,35,22,35,22s-31-25-40-34c0,0-24-13-31-19,0,0-27-2-23-22,1.93-9.63,34,.34,55,8,2.56.93,4.95,1.83,7.11,2.66C562.64,340.17,567,342,567,342l41,32" transform="translate(-31.47 -124.34)" fill="none" stroke="#000" stroke-miterlimit="10"/>
        <path d="M545,280s-9-157-166-155S217.24,275.58,217.24,275.58,193.31,347,255.66,371.5c0,0-24.66-61.5-16.66-98.5,0,0,22.58,65.61,98.79,62.3,0,0,80.21,2.7,96.21-18.3,0,0,24,29,19,45l6-25,22,23V344l13,10v0l-13-10v16l-22-23c-1,10-6,23-6,23,2-20-19-43-19-43-14,18-76,22-125,16s-70-60-70-60c-6,23,7,81,14,93s7,28,7,28" transform="translate(-31.47 -124.34)" fill="none" stroke="#000" stroke-miterlimit="10"/>
        <path d="M250,390s3,45,86,38,108-41,112-38,6,18,5,39,10,47,14,49,8-8,15-6-65,67-85,64-48-20-51-22-60-18-84-36c0,0-10-40-8-46S249,394,250,390Z" transform="translate(-31.47 -124.34)" fill="none" stroke="#000" stroke-miterlimit="10"/>
        <path d="M259,432s70,40,84,38,107-45,110-41" transform="translate(-31.47 -124.34)" fill="none" stroke="#000" stroke-miterlimit="10"/>
        <path d="M448,405s-31.17,36-44.08,41.51" transform="translate(-31.47 -124.34)" fill="none" stroke="#000" stroke-miterlimit="10"/>
        <path d="M346,514s23,5,33,0,88-36,88-36" transform="translate(-31.47 -124.34)" fill="none" stroke="#000" stroke-miterlimit="10"/>
        <path d="M450.46,394S542,303,549,302s30.64-9.37,30.64-9.37l5,3S554,304,551,306s-99.32,92.5-99.32,92.5Z" transform="translate(-31.47 -124.34)" fill="none" stroke="#000" stroke-miterlimit="10"/>
        <polygon points="450.53 345.66 508.53 280.66 511.25 282.32 451 351.66 450.53 345.66" fill="none" stroke="#000" stroke-miterlimit="10"/>
        <path d="M253,390s-77.69-95.44-79.84-94.22S167,296,170,300s79.9,94,79.9,94S249,388,253,390Z" transform="translate(-31.47 -124.34)" fill="none" stroke="#000" stroke-miterlimit="10"/>
        <polygon points="221.53 290.16 194.64 256.35 192.16 259.21 221.53 294.83 221.53 290.16" fill="none" stroke="#000" stroke-miterlimit="10"/>
        <path d="M362,523s1,24,38,26,53-16,74-52" transform="translate(-31.47 -124.34)" fill="none" stroke="#000" stroke-miterlimit="10"/>
        <path d="M535,414s1,48-23,75-64,43.92-64,43.92" transform="translate(-31.47 -124.34)" fill="none" stroke="#000" stroke-miterlimit="10"/>
        <path d="M465.22,511.32S475,513,482,507" transform="translate(-31.47 -124.34)" fill="none" stroke="#000" stroke-miterlimit="10"/>
        <line x1="474.53" y1="324.66" x2="464.53" y2="351.66" fill="none" stroke="#000" stroke-miterlimit="10"/>
        <path d="M275,356c7,3,30,12,46,10s55-10,68-10" transform="translate(-31.47 -124.34)" fill="none" stroke="#000" stroke-miterlimit="10"/>
        <path d="M278,377s27,2,43,7,22-11,63-18" transform="translate(-31.47 -124.34)" fill="none" stroke="#000" stroke-miterlimit="10"/>
        <path d="M284,394s17-3,21,0" transform="translate(-31.47 -124.34)" fill="none" stroke="#000" stroke-miterlimit="10"/>
        <path d="M342,398s35-9,54-20" transform="translate(-31.47 -124.34)" fill="none" stroke="#000" stroke-miterlimit="10"/>
        <g>
          <path d="M324,408s12,15,7,21" transform="translate(-31.47 -124.34)" fill="none" stroke="#000" stroke-miterlimit="10"/>
          <line x1="296.53" y1="297.66" x2="285.53" y2="312.66" fill="none" stroke="#000" stroke-miterlimit="10"/>
          <line x1="285.53" y1="294.66" x2="279.53" y2="307.66" fill="none" stroke="#000" stroke-miterlimit="10"/>
          <line x1="285.53" y1="300.66" x2="279.53" y2="312.66" fill="none" stroke="#000" stroke-miterlimit="10"/>
          <path d="M308,425l-7,7Z" transform="translate(-31.47 -124.34)" fill="none" stroke="#000" stroke-miterlimit="10"/>
          <line x1="273.53" y1="307.66" x2="279.53" y2="297.66" fill="none" stroke="#000" stroke-miterlimit="10"/>
          <line x1="267.53" y1="302.66" x2="276.53" y2="297.66" fill="none" stroke="#000" stroke-miterlimit="10"/>
          <line x1="262.53" y1="303.66" x2="269.53" y2="297.66" fill="none" stroke="#000" stroke-miterlimit="10"/>
          <line x1="255.53" y1="300.66" x2="265.53" y2="297.66" fill="none" stroke="#000" stroke-miterlimit="10"/>
          <line x1="262.53" y1="293.66" x2="252.53" y2="300.66" fill="none" stroke="#000" stroke-miterlimit="10"/>
          <line x1="255.53" y1="289.66" x2="246.53" y2="297.66" fill="none" stroke="#000" stroke-miterlimit="10"/>
          <line x1="248.53" y1="299.66" x2="255.53" y2="293.66" fill="none" stroke="#000" stroke-miterlimit="10"/>
          <line x1="241.53" y1="296.66" x2="253.53" y2="289.66" fill="none" stroke="#000" stroke-miterlimit="10"/>
          <line x1="238.53" y1="294.66" x2="251.53" y2="286.66" fill="none" stroke="#000" stroke-miterlimit="10"/>
          <line x1="227.53" y1="269.66" x2="227.53" y2="280.66" fill="none" stroke="#000" stroke-miterlimit="10"/>
          <line x1="231.53" y1="272.66" x2="229.53" y2="280.66" fill="none" stroke="#000" stroke-miterlimit="10"/>
          <line x1="235.53" y1="275.66" x2="229.53" y2="283.66" fill="none" stroke="#000" stroke-miterlimit="10"/>
          <line x1="229.53" y1="285.66" x2="236.53" y2="278.66" fill="none" stroke="#000" stroke-miterlimit="10"/>
          <line x1="238.53" y1="280.66" x2="229.53" y2="287.66" fill="none" stroke="#000" stroke-miterlimit="10"/>
          <line x1="238.53" y1="281.66" x2="232.53" y2="289.66" fill="none" stroke="#000" stroke-miterlimit="10"/>
          <polyline points="241.53 281.66 235.53 293.66 248.53 285.66" fill="none" stroke="#000" stroke-miterlimit="10"/>
          <polyline points="243.53 283.66 238.53 290.66 238.53 283.66 233.53 290.66" fill="none" stroke="#000" stroke-miterlimit="10"/>
        </g>
        <g>
          <polyline points="324.53 296.66 337.53 312.66 330.53 297.66 341.53 307.66" fill="none" stroke="#000" stroke-miterlimit="10"/>
          <polyline points="337.53 296.66 352.53 306.66 351.22 304.43 345.53 294.66 352.53 293.66 355.53 297.66 352.53 286.66 364.53 297.66 364.53 286.66 370.53 292.66" fill="none" stroke="#000" stroke-miterlimit="10"/>
          <line x1="364.53" y1="281.66" x2="375.53" y2="286.66" fill="none" stroke="#000" stroke-miterlimit="10"/>
          <polyline points="367.53 275.66 379.53 285.66 373.53 272.66 383.53 283.66 375.53 268.66 394.53 285.66 386.53 273.66 394.53 281.66 394.53 273.66 401.53 279.66 399.98 275.78 397.53 269.66" fill="none" stroke="#000" stroke-miterlimit="10"/>
          <line x1="357.53" y1="281.66" x2="364.53" y2="300.66" fill="none" stroke="#000" stroke-miterlimit="10"/>
        </g>
        <path d="M585,354s-13,6-22,29c0,0,7.54,8.81,11,8-1-5,9-26,20-29C595,362,585,354,585,354Z" transform="translate(-31.47 -124.34)" fill="#f4be53" stroke="#000" stroke-miterlimit="10"/>
        <polygon points="320.53 301.66 324.53 312.66 384.53 287.66 416.53 265.66 375.53 265.66 320.53 301.66" fill="none" stroke="#000" stroke-miterlimit="10"/>
        <path d="M311,435l17-10s-47-15-61-25-8-6-8-6l2,19S301,432,311,435Z" transform="translate(-31.47 -124.34)" fill="none" stroke="#000" stroke-miterlimit="10"/>
        <g id="ad4416f6-f2b8-42a3-b54a-2bf80d3d9032" data-name="fiapos_dourados">
          <path d="M241,249.91a222.8,222.8,0,0,1,29.58-14.44q7.65-3.06,15.5-5.62c5.23-1.72,10.56-3.11,15.92-4.35a154.81,154.81,0,0,1,16.28-2.71c2.73-.28,5.47-.53,8.22-.65,1.37-.1,2.75-.13,4.12-.17l2.06-.05,2.06,0a107.4,107.4,0,0,1,16.41,1.48c5.42.94,10.78,2.17,16.08,3.61s10.56,3.06,15.74,4.89,10.32,3.77,15.4,5.86,10.11,4.31,15.11,6.58,9.91,4.75,14.79,7.27,9.73,5.09,14.48,7.85,9.46,5.59,14.09,8.54,9.15,6.11,13.53,9.43c1.09.83,2.16,1.7,3.23,2.56s2.11,1.77,3.11,2.72l1.5,1.42,1.43,1.49c.48.5.89,1.06,1.34,1.58s.77,1.15,1.16,1.72l-.18.1a28,28,0,0,0-5.67-5.83c-1-.89-2.14-1.69-3.21-2.54s-2.19-1.62-3.31-2.4c-4.46-3.16-9.1-6.07-13.76-8.92-9.35-5.66-19-10.88-28.68-15.89-19.5-9.87-39.52-18.87-60.4-25.37-10.44-3.18-21.24-5.59-32.19-5.46h-2.05l-2.05.08c-1.36.06-2.73.09-4.08.24-2.73.21-5.44.56-8.14.93-5.4.78-10.75,1.92-16.05,3.22s-10.54,2.81-15.76,4.41-10.37,3.42-15.47,5.38a310.43,310.43,0,0,0-30,13.19Z" transform="translate(-31.47 -124.34)" fill="#9f8061"/>
          <path d="M252,251.9c8.59-1.57,17.27-2.54,26-3.3s17.41-1.15,26.14-1.18,17.44.36,26.15.74,17.41.84,26.1,1.48,17.38,1.61,26,2.94,17.22,3,25.71,5.09a252.07,252.07,0,0,1,25.05,7.66A211.19,211.19,0,0,1,457,275.91l-.08.18c-8-3.4-16.12-6.58-24.37-9.28-2-.71-4.14-1.3-6.21-2l-3.11-1c-1-.3-2.09-.57-3.14-.86l-6.27-1.73-6.32-1.56a419.08,419.08,0,0,0-51.31-9c-8.64-1-17.33-1.67-26-1.92s-17.41,0-26.09.27c-17.39.5-34.76,1.34-52.09,3Z" transform="translate(-31.47 -124.34)" fill="#9f8061"/>
          <path d="M304,178.9a192.86,192.86,0,0,1,23.89-5.29A218.5,218.5,0,0,1,352.21,171c8.16-.35,16.33-.19,24.47.15S393,172,401.07,173a166.3,166.3,0,0,1,24.06,4.7,146.12,146.12,0,0,1,23,8.62,122.25,122.25,0,0,1,20.77,13.13,110.31,110.31,0,0,1,17.18,17.45l-.16.12a134.87,134.87,0,0,0-18-16.33c-1.6-1.22-3.32-2.3-5-3.46-.84-.56-1.66-1.16-2.52-1.69l-2.61-1.53-2.61-1.54-1.3-.78-1.34-.69-5.39-2.76a168.07,168.07,0,0,0-22.6-8.74,213.9,213.9,0,0,0-23.69-5.42l-6-.92q-3-.36-6.06-.66c-2-.23-4.05-.3-6.08-.47s-4.06-.2-6.09-.25a241.22,241.22,0,0,0-24.35.86c-8.1.62-16.18,1.39-24.23,2.46s-16.08,2.33-24.05,4Z" transform="translate(-31.47 -124.34)" fill="#9f8061"/>
          <path d="M361,174.9a208.1,208.1,0,0,1,22.07,3.52c7.29,1.56,14.53,3.38,21.64,5.59s14.11,4.82,21.07,7.46,13.91,5.31,20.79,8.19a212.78,212.78,0,0,1,39.24,21.42,174.82,174.82,0,0,1,17.36,14.18,140.25,140.25,0,0,1,14.9,16.68l-.16.12a194.27,194.27,0,0,0-15.8-15.64c-1.39-1.22-2.83-2.38-4.24-3.57-.72-.59-1.41-1.2-2.14-1.77l-2.21-1.68c-1.49-1.1-2.9-2.29-4.42-3.35l-4.52-3.22c-6.1-4.18-12.31-8.21-18.76-11.86s-13-7.09-19.7-10.32-13.56-6.07-20.56-8.57l-5.27-1.8L415,188.65q-5.34-1.59-10.71-3C390,181.62,375.58,178,361,175.1Z" transform="translate(-31.47 -124.34)" fill="#9f8061"/>
          <path d="M366.07,256.07a20,20,0,0,1-3.51,2.92c-.63.44-1.26.86-1.93,1.24s-1.3.79-2,1.13c-1.35.7-2.71,1.41-4.11,2s-2.79,1.21-4.21,1.74a118.37,118.37,0,0,1-17.46,5.13c-5.94,1.22-11.94,2-17.92,2.91-3,.47-6,.81-9,1.28l-9,1.24q-9,1.14-18,1.92l-18,1.79c-3,.29-6,.63-9,1a67.77,67.77,0,0,0-8.77,1.54c-1.33.37-3,1-2.45,1.72a7.25,7.25,0,0,0,1.27,1.61,10.64,10.64,0,0,0,.76.75,4.43,4.43,0,0,0,.83.61,6.38,6.38,0,0,0,4.1.73,12.58,12.58,0,0,0,4.19-1.41l.12.16a11.85,11.85,0,0,1-4.19,1.88,6.92,6.92,0,0,1-4.7-.47,11.38,11.38,0,0,1-3.55-3.28,1.89,1.89,0,0,1-.11-1.67,2.71,2.71,0,0,1,1-1.11,9.26,9.26,0,0,1,2.23-1,59.56,59.56,0,0,1,9-1.95c3-.49,6-.84,9-1.2,12-1.31,24.11-1.91,36.14-2.68,3-.28,6-.47,9-.82s6-.73,9-1.25,5.94-1.08,8.87-1.78,5.86-1.38,8.78-2.11c5.82-1.5,11.63-3,17.3-5,2.84-1,5.64-2,8.38-3.25a35.18,35.18,0,0,0,7.75-4.47Z" transform="translate(-31.47 -124.34)" fill="#9f8061"/>
          <path d="M273,307.09c-1.58.63-3.2,1.15-4.83,1.63a44.14,44.14,0,0,1-5,1.18,20.05,20.05,0,0,1-5.22.32,5.1,5.1,0,0,1-2.73-1,2.82,2.82,0,0,1-.91-1.42,4.49,4.49,0,0,1-.11-.82,2.16,2.16,0,0,1,.27-1,5.89,5.89,0,0,1,2.22-1.92,21.59,21.59,0,0,1,2.39-1.13c1.61-.65,3.24-1.18,4.88-1.66,3.28-1,6.61-1.72,9.94-2.36,6.69-1.26,13.42-2.08,20.14-3s13.42-1.82,20.16-2.6c3.37-.39,6.75-.76,10.14-1,1.7-.11,3.4-.2,5.1-.26s3.37-.05,5-.16a137.09,137.09,0,0,0,19.93-2.77,125.73,125.73,0,0,0,19.37-5.46,52.75,52.75,0,0,0,9-4.32,20.82,20.82,0,0,0,3.89-3.09A7.2,7.2,0,0,0,388.9,272h.2a7.47,7.47,0,0,1-1.86,4.76,19.45,19.45,0,0,1-3.81,3.5,49.58,49.58,0,0,1-9,4.93,108.5,108.5,0,0,1-19.52,6.09,116.23,116.23,0,0,1-20.29,2.57c-3.45.11-6.77,0-10.15.13s-6.75.26-10.12.48c-6.74.44-13.48,1.13-20.17,2.15-3.34.51-6.67,1.13-10,1.8s-6.62,1.39-9.91,2.16-6.56,1.53-9.79,2.43c-1.61.45-3.21.95-4.75,1.54a22.25,22.25,0,0,0-2.22,1,4.71,4.71,0,0,0-1.67,1.26.86.86,0,0,0-.08.22,3.13,3.13,0,0,0,0,.44,1.48,1.48,0,0,0,.41.7,3.8,3.8,0,0,0,1.95.77,18.74,18.74,0,0,0,4.9-.05,75.63,75.63,0,0,0,9.9-1.95Z" transform="translate(-31.47 -124.34)" fill="#9f8061"/>
          <path d="M258,296.1c-1.53.47-3.09.86-4.67,1.18a22.81,22.81,0,0,1-4.85.56,7.23,7.23,0,0,1-1.29-.13,2.49,2.49,0,0,1-1.36-.64,1.51,1.51,0,0,1-.26-1.81,3.16,3.16,0,0,1,1.07-1.06,17.93,17.93,0,0,1,4.63-1.85,84.36,84.36,0,0,1,9.47-2c3.17-.53,6.36-.91,9.55-1.22,6.38-.6,12.78-.87,19.17-1.28a82.14,82.14,0,0,0,18.79-3.27c6.14-1.73,12.16-3.81,18.15-6s11.87-4.64,17.71-7.18,11.64-5.16,17.29-8.11c2.82-1.47,5.63-3,8.32-4.66,1.33-.85,2.67-1.71,3.92-2.67a12.33,12.33,0,0,0,3.3-3.34l.18.08a11.72,11.72,0,0,1-3.06,3.75,42,42,0,0,1-3.78,3q-3.94,2.81-8.13,5.2A190.84,190.84,0,0,1,345,273.39c-5.86,2.61-11.87,4.89-17.93,7a165.37,165.37,0,0,1-18.51,5.27,120,120,0,0,1-19,2.86c-6.36.55-12.7,1.4-19,2.28s-12.67,1.62-18.81,3a19.88,19.88,0,0,0-4.33,1.48,2.08,2.08,0,0,0-.67.55.29.29,0,0,0,0,.38,1.58,1.58,0,0,0,.76.38,6.22,6.22,0,0,0,1.09.16,43.39,43.39,0,0,0,9.43-.89Z" transform="translate(-31.47 -124.34)" fill="#9f8061"/>
          <path d="M289.07,326.48a9.21,9.21,0,0,1-5,3,6.7,6.7,0,0,1-3-.09,6,6,0,0,1-1.43-.55l-.67-.36-.61-.45-.61-.45-.53-.53-.54-.52-.13-.14a2,2,0,0,1-.18-.25,1.53,1.53,0,0,1-.12-.38,1.09,1.09,0,0,1,.06-.45,1.55,1.55,0,0,1,.82-.79,7.48,7.48,0,0,1,.75-.31c.5-.15,1-.27,1.46-.37a52.19,52.19,0,0,1,5.77-.78c3.84-.36,7.67-.55,11.5-.72s7.66-.27,11.49-.33c7.66-.09,15.33,0,23-.26S346.4,321,354,320.35c15.25-1.39,30.49-2.89,45.48-5.71,3.75-.68,7.47-1.5,11.15-2.41a86.48,86.48,0,0,0,10.85-3.42,38.35,38.35,0,0,0,9.88-5.39,17.13,17.13,0,0,0,3.77-4.11A11.85,11.85,0,0,0,436.9,294h.2a11.62,11.62,0,0,1-1.39,5.63,16.86,16.86,0,0,1-3.67,4.56,37.44,37.44,0,0,1-9.94,6.06,109.41,109.41,0,0,1-22.2,6.49c-7.56,1.46-15.2,2.41-22.84,3.17s-15.3,1.23-23,1.53-15.32.58-23,.94l-23,1.28c-7.64.37-15.31.48-22.92.92-1.9.14-3.8.25-5.65.54-.45.07-.91.16-1.33.27a4.86,4.86,0,0,0-.58.2c-.19.06-.29.21-.25.13s-.11-.21.12,0l.47.5.47.51.52.42a6.4,6.4,0,0,0,5,1.6,9.29,9.29,0,0,0,4.94-2.44Z" transform="translate(-31.47 -124.34)" fill="#9f8061"/>
          <path d="M237.06,277.08a99,99,0,0,0-10.66,14.16,31.84,31.84,0,0,0-3.84,7.94,21.65,21.65,0,0,0-.71,4.37,18.87,18.87,0,0,0,.34,4.38c.13.72.34,1.41.53,2.12l.65,2.14,1.29,4.28c.88,2.84,1.87,5.65,2.79,8.48l5.64,17-.18.08a97,97,0,0,1-7.48-16.4c-1-2.85-1.82-5.74-2.58-8.66-.37-1.46-.74-2.92-1-4.39a36.55,36.55,0,0,1-.71-4.51,30.55,30.55,0,0,1,.83-9.06c.36-1.47.76-2.93,1.25-4.38a38.82,38.82,0,0,1,1.77-4.22,36.59,36.59,0,0,1,5.23-7.45,37.38,37.38,0,0,1,6.76-6.05Z" transform="translate(-31.47 -124.34)" fill="#9f8061"/>
          <path d="M238.58,286.07a118.1,118.1,0,0,0-9.72,17.29,31,31,0,0,0-2.93,9.39,16.49,16.49,0,0,0,.16,4.91c.3,1.6.91,3.19,1.37,4.79,1,3.19,2,6.4,2.84,9.63l2.67,9.63c.85,3.22,1.74,6.42,2.71,9.58a48.59,48.59,0,0,0,1.67,4.66c.67,1.46,1.31,3.08,2.69,4l-.08.18a4.74,4.74,0,0,1-2.05-1.57,14.49,14.49,0,0,1-1.47-2.11,39.57,39.57,0,0,1-2.24-4.58,93.39,93.39,0,0,1-3.28-9.54c-.93-3.23-1.69-6.49-2.44-9.75s-1.43-6.53-2.08-9.82c-.33-1.63-.72-3.25-1-5a24.67,24.67,0,0,1-.14-5.08,36.94,36.94,0,0,1,2-9.95,42.54,42.54,0,0,1,4.69-9,48.11,48.11,0,0,1,6.41-7.81Z" transform="translate(-31.47 -124.34)" fill="#9f8061"/>
          <path d="M237.84,299a26.92,26.92,0,0,0-3.25,8.66,50.06,50.06,0,0,0-1.11,9.22c0,.77-.07,1.54,0,2.32v2.33c.08,1.55.07,3.1.23,4.64s.22,3.1.44,4.64l.29,2.3.38,2.3a133.72,133.72,0,0,0,4.39,18.13,102.79,102.79,0,0,0,7.12,17.31l-.58.18-.8-7.42L244,356.2c-.6-4.93-1.25-9.87-1.8-14.81l-1.66-14.83c-.55-4.95-1.09-9.89-1.57-14.84l2.13-.21c.39,4,.81,8,1.3,12s1,8,1.58,12,1.24,8,2.11,11.91c.43,2,.89,3.92,1.47,5.85a19.41,19.41,0,0,0,2.42,5.46l-.15.13a18.21,18.21,0,0,1-2.9-5.38,59.46,59.46,0,0,1-1.86-5.81q-1.59-5.9-2.67-11.89c-.74-4-1.38-8-2-12s-1.07-8-1.46-12.09l2.12-.21c.51,4.95,1,9.9,1.42,14.86l1.32,14.86c.44,5,.79,9.92,1.19,14.88l.6,7.44.69,7.43.15,1.58-.73-1.4c-1.47-2.79-2.79-5.64-4.08-8.5s-2.51-5.77-3.59-8.73-2.08-5.94-3-9a88.13,88.13,0,0,1-2.08-9.24,78.37,78.37,0,0,1-.91-18.92,52,52,0,0,1,1.59-9.36,35,35,0,0,1,1.62-4.47,17.15,17.15,0,0,1,2.4-4.09Z" transform="translate(-31.47 -124.34)" fill="#9f8061"/>
          <path d="M261.06,178.08a45.65,45.65,0,0,0-5.87,6.33,24.52,24.52,0,0,0-4,7.46,11,11,0,0,0-.5,4.09,8.63,8.63,0,0,0,1.22,3.82,11.41,11.41,0,0,0,2.76,3l.83.63a8.77,8.77,0,0,0,.84.49,8.55,8.55,0,0,0,1.88.66,21.61,21.61,0,0,0,8.31-.23,79.48,79.48,0,0,0,8.33-2.13c5.5-1.71,11-3.58,16.48-5.43s11.09-3.49,16.73-4.91c2.82-.71,5.66-1.34,8.52-1.86s5.74-1,8.64-1.26a60.58,60.58,0,0,1,17.42.62A43.8,43.8,0,0,1,351,192c1.34.59,2.66,1.27,3.92,2s2.55,1.38,3.83,2.05c20.67,10.4,42.16,19.15,63.29,28.73,10.59,4.71,21.12,9.59,31.5,14.8,5.19,2.61,10.31,5.35,15.32,8.32a85.57,85.57,0,0,1,7.28,4.81,37.61,37.61,0,0,1,3.37,2.8,10.5,10.5,0,0,1,2.61,3.51l-.18.08a10.31,10.31,0,0,0-2.71-3.28,36.1,36.1,0,0,0-3.45-2.59c-2.39-1.61-4.91-3-7.43-4.45-5.06-2.79-10.28-5.3-15.5-7.8S442.33,236,437,233.68l-15.87-7.08q-15.93-7-31.75-14.23c-10.54-4.84-21-9.79-31.22-15.42-1.27-.7-2.54-1.42-3.79-2.16s-2.49-1.42-3.79-2a38.21,38.21,0,0,0-8.15-2.7,50.37,50.37,0,0,0-8.57-1,62.4,62.4,0,0,0-8.64.39,100.11,100.11,0,0,0-16.94,3.5c-5.56,1.59-11,3.48-16.48,5.41s-10.92,3.91-16.52,5.54a79.3,79.3,0,0,1-8.54,2.07,23.26,23.26,0,0,1-9,.11,9.91,9.91,0,0,1-2.2-.82,7.12,7.12,0,0,1-1-.62l-.89-.71a12.72,12.72,0,0,1-3-3.46,10,10,0,0,1-1.27-4.42,12.29,12.29,0,0,1,.69-4.48,24,24,0,0,1,4.5-7.57,42.4,42.4,0,0,1,6.29-6.06Z" transform="translate(-31.47 -124.34)" fill="#9f8061"/>
          <path d="M496,316.91c2.28.54,4.5,1.21,6.71,1.93s4.4,1.5,6.57,2.32,4.28,1.82,6.39,2.79,4.22,1.95,6.4,2.76l-.32.51c-2.67-2.49-5.58-4.74-8.36-7.12-1.38-1.19-2.74-2.42-4.1-3.63s-2.73-2.43-4.06-3.69l-6-5.67,7.23,4c1.35.73,2.65,1.54,4,2.31s2.62,1.58,3.91,2.4,2.58,1.67,3.86,2.51,2.54,1.72,3.79,2.62l-.1.18c-1.42-.6-2.83-1.21-4.21-1.88s-2.78-1.3-4.14-2-2.73-1.39-4.09-2.1-2.71-1.42-4-2.19l1.25-1.71c1.34,1.24,2.64,2.53,3.94,3.81s2.61,2.56,3.9,3.87c2.55,2.62,5,5.37,7.64,7.88l1.17,1.1-1.49-.59c-2.16-.86-4.37-1.58-6.6-2.24s-4.46-1.35-6.61-2.21-4.31-1.73-6.43-2.68-4.23-1.94-6.29-3.07Z" transform="translate(-31.47 -124.34)" fill="#9f8061"/>
          <path d="M482,360c4-7-25-48-25-48" transform="translate(-31.47 -124.34)" fill="none" stroke="#9f8061" stroke-miterlimit="10"/>
          <path d="M453,321s19,22,21,28" transform="translate(-31.47 -124.34)" fill="none" stroke="#9f8061" stroke-miterlimit="10"/>
          <path d="M486,309s4,26,6,36-18-28-18-28" transform="translate(-31.47 -124.34)" fill="none" stroke="#9f8061" stroke-miterlimit="10"/>
        </g>
        <g id="bff21ec8-95ab-4fe2-8649-d1b4ef207f83" data-name="fiapos_pretos">
          <path d="M237,252s86-64,179-10" transform="translate(-31.47 -124.34)" fill="none" stroke="#000" stroke-miterlimit="10"/>
          <path d="M259,259s122-26,152,10,22,48,22,48" transform="translate(-31.47 -124.34)" fill="none" stroke="#000" stroke-miterlimit="10"/>
          <path d="M262,268s94-9,102.5-16" transform="translate(-31.47 -124.34)" fill="none" stroke="#000" stroke-miterlimit="10"/>
          <path d="M255,286s-16,6-13,0,125-18,133-26,2.7-7.19,2.7-7.19" transform="translate(-31.47 -124.34)" fill="none" stroke="#000" stroke-miterlimit="10"/>
          <path d="M258,293s-15,2-12,0,14-7,78-17,72-17.4,72-17.7" transform="translate(-31.47 -124.34)" fill="none" stroke="#000" stroke-miterlimit="10"/>
          <path d="M264,300s-9,4-9,0-2-6,11-11,131.81-13.55,139.4-25.28" transform="translate(-31.47 -124.34)" fill="none" stroke="#000" stroke-miterlimit="10"/>
          <path d="M275,305s-12,4-14,2-11-13,28-17,120-7,123-14" transform="translate(-31.47 -124.34)" fill="none" stroke="#000" stroke-miterlimit="10"/>
          <path d="M289,315s-24,10-19,0,32-10,47-9,78-8,88-20" transform="translate(-31.47 -124.34)" fill="none" stroke="#000" stroke-miterlimit="10"/>
          <path d="M295,330s-29-8-6-13,117.22,6.25,138.61-24.37" transform="translate(-31.47 -124.34)" fill="none" stroke="#000" stroke-miterlimit="10"/>
          <path d="M242,208s-5,12,6,12,64-20,94-15,93,22,118,47" transform="translate(-31.47 -124.34)" fill="none" stroke="#000" stroke-miterlimit="10"/>
        </g>
      </g>
    </g>
  </g>
</svg>
