<svg xmlns="http://www.w3.org/2000/svg" viewBox="0 0 150.68 209.47">
  <g id="b7bf770b-7d0e-4642-ae3e-ff49f08ab35b" data-name="Camada 2">
    <g id="ad3033ed-d748-4bff-a0a6-91269f09e319" data-name="Layer 3">
      <path d="M11.34,107.47C8,106.77,4.07,106,2,102.93a5.85,5.85,0,0,1-1-4.59c.45-1.81,2-3,3.29-4.26A54.76,54.76,0,0,0,15.74,77.15,54.2,54.2,0,0,0,19.2,66c.06-.32-.42-.45-.48-.14A54.41,54.41,0,0,1,10.32,86a53.2,53.2,0,0,1-7.08,8.41C2,95.53.75,96.74.43,98.46a6.25,6.25,0,0,0,.8,4.18c2,3.57,6.26,4.54,10,5.31.32.06.45-.42.14-.48Z" transform="translate(0 -0.05)"/>
      <path d="M13,106.16a6.42,6.42,0,0,1,5.11-1.71,13.8,13.8,0,0,1,5.43,2.32.25.25,0,0,0,.25-.43,13.77,13.77,0,0,0-5.87-2.41,6.86,6.86,0,0,0-5.27,1.88c-.24.22.12.57.35.35Z" transform="translate(0 -0.05)"/>
      <path d="M14.28,106.39a42.73,42.73,0,0,1,7.5.24c.32,0,.31-.46,0-.5a42.73,42.73,0,0,0-7.5-.24c-.32,0-.32.52,0,.5Z" transform="translate(0 -0.05)"/>
      <path d="M20.78,98.89c2-.09,4.22-.18,6.07.77s2.82,3.07,3.56,5c.12.29.6.17.49-.14-.77-2-1.65-4.17-3.66-5.27s-4.31-1-6.46-.9c-.32,0-.32.52,0,.5Z" transform="translate(0 -0.05)"/>
      <path d="M10.9,137q-1-5.47-1.64-11l-.25.25,14.75-1.75,3.69-.44A17.2,17.2,0,0,1,31,124a12.38,12.38,0,0,1,6,2.78c2.22,1.6,4.41,3.22,6.62,4.84.26.19.51-.25.25-.43l-6.1-4.47a16.12,16.12,0,0,0-5.51-3c-2.34-.58-4.85,0-7.2.25l-7.5.89-8.61,1a.25.25,0,0,0-.25.25q.69,5.56,1.65,11.1c.06.31.54.18.49-.13Z" transform="translate(0 -0.05)"/>
      <path d="M36.25,105q3.31,5.37,7.1,10.43c.2.25.63,0,.44-.26-2.52-3.37-4.9-6.84-7.11-10.42a.25.25,0,0,0-.43.25Z" transform="translate(0 -0.05)"/>
      <path d="M45.82,120.06a13.81,13.81,0,0,0,4,13.22c.23.22.59-.13.35-.35a13.36,13.36,0,0,1-3.92-12.74c.07-.31-.41-.44-.48-.13Z" transform="translate(0 -0.05)"/>
      <path d="M34.9,76.33a25.77,25.77,0,0,1,4,3,8.54,8.54,0,0,0,4.47,1.82,38.76,38.76,0,0,0,5.8-.15l6.35-.35c.32,0,.33-.52,0-.5l-6,.33a47.62,47.62,0,0,1-5.72.2,8.36,8.36,0,0,1-4.9-2,21.39,21.39,0,0,0-3.78-2.78c-.29-.14-.54.29-.25.43Z" transform="translate(0 -0.05)"/>
      <path d="M40.75,71a84.25,84.25,0,0,0,15,3.47c.31.05.45-.43.13-.48a83.94,83.94,0,0,1-14.94-3.47c-.31-.1-.44.38-.14.48Z" transform="translate(0 -0.05)"/>
      <path d="M53.22,74.88q1.64,2.25,3.19,4.55c.18.27.61,0,.43-.25-1-1.54-2.1-3.05-3.18-4.55-.19-.26-.63,0-.44.25Z" transform="translate(0 -0.05)"/>
      <path d="M35.46,76.17,40.31,73c.27-.18,0-.61-.25-.44l-4.85,3.23c-.26.18,0,.61.25.43Z" transform="translate(0 -0.05)"/>
      <path d="M42.74,72.42a.84.84,0,0,0-.34-1,.27.27,0,0,0-.31,0,2.51,2.51,0,0,0-.47,1.73,7.55,7.55,0,0,0,.26,1.89,5.84,5.84,0,0,0,2,3.14c1.84,1.41,4.77,1.42,6-.76a3.29,3.29,0,0,0,0-3.37c-.18-.28-.61,0-.44.25a3,3,0,0,1-2,4.31,4.48,4.48,0,0,1-4.91-3.11,6.6,6.6,0,0,1-.4-1.8,2.65,2.65,0,0,1,.3-1.92l-.31,0a.34.34,0,0,1,.12.45c-.11.3.37.43.48.13Z" transform="translate(0 -0.05)"/>
      <path d="M5.77,77a24,24,0,0,0,7.35-1.54c.3-.11.17-.59-.13-.48a23.57,23.57,0,0,1-7.22,1.52c-.32,0-.32.52,0,.5Z" transform="translate(0 -0.05)"/>
      <path d="M9,76.87a3.6,3.6,0,0,0,4.3,3.48c.32-.07.18-.56-.13-.48a3.1,3.1,0,0,1-3.67-3c0-.32-.49-.32-.5,0Z" transform="translate(0 -0.05)"/>
      <path d="M12.86,75.4l1.79,1.2a.25.25,0,0,0,.34-.09.26.26,0,0,0-.09-.34L13.12,75a.26.26,0,1,0-.26.44Z" transform="translate(0 -0.05)"/>
      <path d="M21,67a12.52,12.52,0,0,0,7.57,2.73.25.25,0,0,0,0-.5,11.89,11.89,0,0,1-7.21-2.58c-.25-.2-.61.15-.36.35Z" transform="translate(0 -0.05)"/>
      <path d="M20.17,65.53c4.34.91,7.89,4,12.3,4.67.32,0,.46-.43.14-.48-4.42-.67-8-3.76-12.31-4.67-.31-.07-.45.41-.13.48Z" transform="translate(0 -0.05)"/>
      <path d="M23.94,64a38.82,38.82,0,0,0,5.89,3.57c1,.47,1.94.91,2.93,1.3a3.13,3.13,0,0,0,2.65.21c.29-.14,0-.57-.25-.43-.91.47-2.06-.17-2.92-.53s-1.94-.86-2.88-1.34a39.81,39.81,0,0,1-5.17-3.21c-.26-.19-.51.24-.25.43Z" transform="translate(0 -0.05)"/>
      <path d="M25.49,63.13c3.56,2.42,7.17,4.85,11.26,6.27.3.11.43-.37.13-.48-4.05-1.41-7.62-3.83-11.14-6.22-.27-.18-.52.25-.25.43Z" transform="translate(0 -0.05)"/>
      <path d="M28.39,62.76a49.18,49.18,0,0,0,9.15,6.54c.28.15.53-.28.25-.43a49.33,49.33,0,0,1-9-6.46c-.24-.22-.59.13-.35.35Z" transform="translate(0 -0.05)"/>
      <path d="M30.6,61.8a45.8,45.8,0,0,0,7.24,7c.25.2.6-.16.35-.35a46.23,46.23,0,0,1-7.24-7c-.21-.25-.56.11-.35.35Z" transform="translate(0 -0.05)"/>
      <path d="M33.2,60.41c-.54.22-.52.79-.31,1.26a5.53,5.53,0,0,0,.67,1c.26.36.52.72.8,1.07a42.14,42.14,0,0,0,3.52,4c.22.23.58-.12.35-.35q-1.54-1.58-2.93-3.28-.7-.87-1.35-1.77c-.1-.15-1.05-1.31-.62-1.49s.17-.6-.13-.48Z" transform="translate(0 -0.05)"/>
      <path d="M33.53,60.19a24.59,24.59,0,0,0,4.3,7.13c.21.24.56-.11.35-.36A23.83,23.83,0,0,1,34,60.06c-.11-.3-.6-.17-.48.13Z" transform="translate(0 -0.05)"/>
      <path d="M27.43,59.93a30.73,30.73,0,0,0,8.18,9c.26.19.51-.24.25-.43a30.12,30.12,0,0,1-8-8.79.25.25,0,0,0-.43.25Z" transform="translate(0 -0.05)"/>
      <path d="M22.69,62.43a4,4,0,0,0,1.45,2.09c.69.63,1.41,1.23,2.15,1.79a27.86,27.86,0,0,0,5,3c.29.13.55-.3.25-.43a28.16,28.16,0,0,1-4.66-2.71,27.13,27.13,0,0,1-2.13-1.72,4.14,4.14,0,0,1-1.6-2.12c-.06-.32-.54-.18-.48.13Z" transform="translate(0 -0.05)"/>
      <path d="M21.27,63a13.68,13.68,0,0,0,8.45,5.56c.31.07.45-.42.13-.48a13.2,13.2,0,0,1-8.15-5.34c-.18-.26-.61,0-.43.26Z" transform="translate(0 -0.05)"/>
      <path d="M18.69,62.54a8.2,8.2,0,0,0,2.46,2.75A31.17,31.17,0,0,0,31.42,71c.31.1.44-.38.13-.48a31.6,31.6,0,0,1-6.8-3.22,32,32,0,0,1-3.08-2.21,8.5,8.5,0,0,1-2.55-2.79c-.14-.3-.57,0-.43.25Z" transform="translate(0 -0.05)"/>
      <path d="M17.39,64.5a20.37,20.37,0,0,0,10.9,4.24c.32,0,.32-.48,0-.5a19.79,19.79,0,0,1-10.54-4.1c-.25-.19-.61.16-.36.36Z" transform="translate(0 -0.05)"/>
      <path d="M23.56,61.25a21.54,21.54,0,0,0,8.55,7.68c.28.14.54-.29.25-.43A21,21,0,0,1,24,61c-.18-.27-.61,0-.44.26Z" transform="translate(0 -0.05)"/>
      <path d="M29,60.45a43.9,43.9,0,0,0,7.87,7.23c.26.19.51-.25.25-.43a43.56,43.56,0,0,1-7.77-7.15c-.21-.25-.56.11-.35.35Z" transform="translate(0 -0.05)"/>
      <path d="M34.73,59.79,37.4,65c.15.29.58,0,.43-.25l-2.67-5.16c-.15-.29-.58,0-.43.25Z" transform="translate(0 -0.05)"/>
      <path d="M38.79,60.12a8.58,8.58,0,0,0,2.3,6.19c.22.23.58-.12.36-.35a8.08,8.08,0,0,1-2.16-5.84c0-.32-.49-.32-.5,0Z" transform="translate(0 -0.05)"/>
      <path d="M41.05,60.62A11.35,11.35,0,0,0,43,67.06c.18.27.61,0,.43-.25a10.84,10.84,0,0,1-1.85-6.19.25.25,0,0,0-.5,0Z" transform="translate(0 -0.05)"/>
      <path d="M42,61.51l3,4.27c.19.26.62,0,.43-.26l-3-4.26c-.18-.26-.61,0-.43.25Z" transform="translate(0 -0.05)"/>
      <path d="M44.05,61a35.58,35.58,0,0,0,3.58,5.26c.21.25.56-.1.36-.35a35.08,35.08,0,0,1-3.51-5.17c-.16-.28-.59,0-.43.26Z" transform="translate(0 -0.05)"/>
      <path d="M47.38,64.28l1.2,1.53a.25.25,0,0,0,.36,0,.26.26,0,0,0,0-.35l-1.21-1.54a.25.25,0,0,0-.35,0,.26.26,0,0,0,0,.36Z" transform="translate(0 -0.05)"/>
      <path d="M47.53,64.12a.25.25,0,0,0,0-.5.25.25,0,0,0,0,.5Z" transform="translate(0 -0.05)"/>
      <path d="M47.66,64.49l2,2a.25.25,0,0,0,.35-.35l-2-2c-.23-.24-.58.12-.36.35Z" transform="translate(0 -0.05)"/>
      <path d="M47.59,62.74a14.56,14.56,0,0,1,1.2,3.7c.06.31.55.18.49-.14A15.71,15.71,0,0,0,48,62.48c-.14-.29-.57,0-.43.26Z" transform="translate(0 -0.05)"/>
      <path d="M49.14,61.71l1.7,4a.25.25,0,0,0,.35.09.25.25,0,0,0,.09-.34l-1.7-4a.27.27,0,0,0-.35-.09.26.26,0,0,0-.09.34Z" transform="translate(0 -0.05)"/>
      <path d="M50.47,61.53a21.74,21.74,0,0,1-1.61,3.74c-.15.28.28.54.43.25A21.82,21.82,0,0,0,51,61.67c.1-.31-.38-.44-.48-.14Z" transform="translate(0 -0.05)"/>
      <path d="M52.64,63a9.23,9.23,0,0,1-2.29,2.65.26.26,0,0,0,0,.36.27.27,0,0,0,.36,0,9.62,9.62,0,0,0,2.36-2.76.25.25,0,0,0-.43-.25Z" transform="translate(0 -0.05)"/>
      <path d="M51.83,63.88a2.05,2.05,0,0,1-.45,1,2.14,2.14,0,0,1-.41.39,1.74,1.74,0,0,1-.26.15,1.28,1.28,0,0,1-.27.11.27.27,0,0,0-.18.31.25.25,0,0,0,.31.17,2.57,2.57,0,0,0,1.76-2.14.25.25,0,0,0-.25-.25.25.25,0,0,0-.25.25Z" transform="translate(0 -0.05)"/>
      <path d="M52,64.12a.25.25,0,0,0,0-.5.25.25,0,0,0,0,.5Z" transform="translate(0 -0.05)"/>
      <path d="M52.34,64.82l2,1.75a.25.25,0,0,0,.35,0,.24.24,0,0,0,0-.35l-2-1.76a.26.26,0,0,0-.35,0,.25.25,0,0,0,0,.36Z" transform="translate(0 -0.05)"/>
      <path d="M51.43,63.7l5.51,2c.3.11.43-.37.13-.48l-5.51-2c-.3-.11-.43.38-.13.48Z" transform="translate(0 -0.05)"/>
      <path d="M55,63.86A6.72,6.72,0,0,1,57.6,65.3c.24.22.59-.14.35-.35a7.41,7.41,0,0,0-2.85-1.58c-.31-.09-.44.4-.13.49Z" transform="translate(0 -0.05)"/>
      <path d="M54.35,63.8a8,8,0,0,0,3.62,2c.31.08.45-.41.13-.48a7.61,7.61,0,0,1-3.4-1.9c-.23-.23-.58.13-.35.35Z" transform="translate(0 -0.05)"/>
      <path d="M50,64.37a12.57,12.57,0,0,0,3.57.25c.32,0,.32-.53,0-.5a12.42,12.42,0,0,1-3.44-.23c-.31-.07-.44.41-.13.48Z" transform="translate(0 -0.05)"/>
      <path d="M40.54,66.62l-.31-5.5c0-.32-.52-.32-.5,0l.31,5.5c0,.32.51.32.5,0Z" transform="translate(0 -0.05)"/>
      <path d="M39.21,65.19,36,62.2c-.23-.22-.59.13-.35.35l3.25,3c.24.21.6-.14.36-.36Z" transform="translate(0 -0.05)"/>
      <path d="M41.23,65.41a13.51,13.51,0,0,1-3.6-4.61c-.14-.29-.57,0-.44.25a13.94,13.94,0,0,0,3.69,4.72c.24.2.6-.15.35-.36Z" transform="translate(0 -0.05)"/>
      <path d="M42.72,63.93a6.2,6.2,0,0,1-2-4.56c0-.32-.49-.32-.5,0a6.62,6.62,0,0,0,2.12,4.91c.24.22.59-.14.35-.35Z" transform="translate(0 -0.05)"/>
      <path d="M45.21,61.44l-.5-.5a.27.27,0,0,0-.36,0,.27.27,0,0,0,0,.36l.5.5a.27.27,0,0,0,.36,0,.29.29,0,0,0,.07-.18.31.31,0,0,0-.07-.18Z" transform="translate(0 -0.05)"/>
      <path d="M47.73,62.43l-1-1.25a.23.23,0,0,0-.35,0,.25.25,0,0,0,0,.35l1,1.25a.26.26,0,0,0,.36,0,.25.25,0,0,0,0-.35Z" transform="translate(0 -0.05)"/>
      <path d="M48.67,63.89a10,10,0,0,1-3.4-4.33c-.12-.3-.6-.17-.48.13a10.69,10.69,0,0,0,3.62,4.63c.27.19.52-.24.26-.43Z" transform="translate(0 -0.05)"/>
      <path d="M46.16,63.65a6.21,6.21,0,0,1-2.37-4.28c0-.32-.53-.32-.5,0a6.76,6.76,0,0,0,2.62,4.71c.25.2.5-.24.25-.43Z" transform="translate(0 -0.05)"/>
      <path d="M43.23,64.26a9.1,9.1,0,0,0-3.59-2.82.25.25,0,0,0-.34.09.26.26,0,0,0,.09.34,8.74,8.74,0,0,1,3.41,2.64.26.26,0,0,0,.34.09.25.25,0,0,0,.09-.34Z" transform="translate(0 -0.05)"/>
      <path d="M40.74,65.67a35.65,35.65,0,0,0-5.1-4.49c-.26-.19-.51.24-.25.43a35.47,35.47,0,0,1,5,4.41c.22.23.58-.12.36-.35Z" transform="translate(0 -0.05)"/>
      <path d="M37.65,66.43a51.17,51.17,0,0,1-5.73-3.79c-.26-.19-.51.24-.26.43a53.07,53.07,0,0,0,5.73,3.79c.28.16.54-.28.26-.43Z" transform="translate(0 -0.05)"/>
      <path d="M33.72,66.26a14.13,14.13,0,0,0-4.82-4.34.25.25,0,0,0-.25.43,13.72,13.72,0,0,1,4.64,4.16c.18.27.62,0,.43-.25Z" transform="translate(0 -0.05)"/>
      <path d="M31.66,66.25l-5.21-4.54c-.24-.22-.6.14-.36.35l5.22,4.54c.24.21.6-.14.35-.35Z" transform="translate(0 -0.05)"/>
      <path d="M32,67.06c-2.22-1.47-4.5-2.83-6.84-4.1-.29-.15-.54.28-.26.43,2.34,1.27,4.63,2.64,6.85,4.1.26.18.52-.25.25-.43Z" transform="translate(0 -0.05)"/>
      <path d="M39.25,68.5q-2.11-3.48-4.5-6.76c-.18-.26-.62,0-.43.25,1.59,2.19,3.09,4.45,4.49,6.76.17.27.6,0,.44-.25Z" transform="translate(0 -0.05)"/>
      <path d="M37.16,63.29l-1.37-2.82c-.14-.29-.57,0-.43.26l1.37,2.81c.14.29.57,0,.43-.25Z" transform="translate(0 -0.05)"/>
      <path d="M43.22,66.18a42,42,0,0,1-5-6.42c-.18-.27-.61,0-.43.26a43.82,43.82,0,0,0,5.07,6.52c.23.23.58-.12.36-.36Z" transform="translate(0 -0.05)"/>
      <path d="M42.46,62.69a5.62,5.62,0,0,1-1.93-2.89.26.26,0,0,0-.49.14,6.2,6.2,0,0,0,2.06,3.11.27.27,0,0,0,.36,0,.26.26,0,0,0,0-.36Z" transform="translate(0 -0.05)"/>
      <path d="M48.29,63.08a13.24,13.24,0,0,1-3.15-3.52c-.17-.27-.6,0-.43.25a13.65,13.65,0,0,0,3.23,3.63.26.26,0,0,0,.35,0,.25.25,0,0,0,0-.36Z" transform="translate(0 -0.05)"/>
      <path d="M49.15,62.66A9.21,9.21,0,0,1,46.28,60c-.19-.26-.62,0-.44.26a10,10,0,0,0,3.06,2.86.25.25,0,0,0,.25-.43Z" transform="translate(0 -0.05)"/>
      <path d="M16,71.12l.65-5.74c0-.32-.47-.31-.5,0l-.65,5.74c0,.32.47.31.5,0Z" transform="translate(0 -0.05)"/>
      <path d="M15.38,68.27,13.81,64c-.12-.3-.6-.17-.49.13L14.9,68.4c.11.3.59.17.48-.13Z" transform="translate(0 -0.05)"/>
      <path d="M14.53,68.87V63.12a.25.25,0,0,0-.5,0v5.75a.25.25,0,0,0,.5,0Z" transform="translate(0 -0.05)"/>
      <path d="M13.74,67.93l.52-2.74a.26.26,0,0,0-.18-.31.24.24,0,0,0-.3.17l-.52,2.75a.25.25,0,0,0,.17.31.26.26,0,0,0,.31-.18Z" transform="translate(0 -0.05)"/>
      <path d="M12.78,67.62V63.87a.25.25,0,0,0-.5,0v3.75a.25.25,0,0,0,.5,0Z" transform="translate(0 -0.05)"/>
      <path d="M11.29,66.2,12.34,63c.09-.31-.39-.44-.49-.13l-1,3.23c-.1.31.39.44.48.14Z" transform="translate(0 -0.05)"/>
      <path d="M10,65a9.08,9.08,0,0,0,2.12-3.59c.09-.31-.39-.44-.49-.13a8.43,8.43,0,0,1-2,3.37A.25.25,0,0,0,10,65Z" transform="translate(0 -0.05)"/>
      <path d="M9.69,64.28A8.37,8.37,0,0,0,11.28,62a.25.25,0,0,0-.09-.34.26.26,0,0,0-.34.09,8,8,0,0,1-1.51,2.17c-.23.23.13.58.35.35Z" transform="translate(0 -0.05)"/>
      <path d="M10.77,67.87a11.87,11.87,0,0,1,.76-4.68c.12-.3-.37-.43-.48-.13a12.13,12.13,0,0,0-.78,4.81c0,.32.52.32.5,0Z" transform="translate(0 -0.05)"/>
      <path d="M10.79,68A21.17,21.17,0,0,1,14,63.32c.22-.24-.13-.59-.35-.35a21.21,21.21,0,0,0-3.27,4.8c-.15.28.28.54.43.25Z" transform="translate(0 -0.05)"/>
      <path d="M12.8,70.61a28.23,28.23,0,0,1,3.11-6c.18-.27-.25-.52-.43-.25a28.32,28.32,0,0,0-3.16,6.11c-.11.31.37.44.48.14Z" transform="translate(0 -0.05)"/>
      <path d="M11.23,69.37l.31-3.75c0-.32-.47-.32-.5,0l-.31,3.75c0,.32.47.32.5,0Z" transform="translate(0 -0.05)"/>
      <path d="M8.44,68.78a16.69,16.69,0,0,0,3.82-5.27c.14-.29-.29-.55-.43-.26a16.43,16.43,0,0,1-3.74,5.18c-.24.22.12.57.35.35Z" transform="translate(0 -0.05)"/>
      <path d="M7.62,69.92l3.28-5.58a.26.26,0,0,0-.44-.26L7.19,69.67a.25.25,0,0,0,.43.25Z" transform="translate(0 -0.05)"/>
      <path d="M5.88,67.74,9.5,63.08c.19-.25-.16-.61-.36-.35L5.53,67.39c-.19.25.16.61.35.35Z" transform="translate(0 -0.05)"/>
      <path d="M5.29,67.94a14.33,14.33,0,0,1,3.44-5.11c.24-.23-.12-.58-.35-.36A15.22,15.22,0,0,0,4.8,67.81c-.12.3.37.43.49.13Z" transform="translate(0 -0.05)"/>
      <path d="M4.39,68.25a60.25,60.25,0,0,0,4-5.65c.17-.27-.26-.53-.43-.25A59.74,59.74,0,0,1,4,67.89c-.2.25.15.61.35.36Z" transform="translate(0 -0.05)"/>
      <path d="M4.23,68.62A14.58,14.58,0,0,1,5.59,63c.13-.29-.3-.54-.44-.25a15.28,15.28,0,0,0-1.42,5.83c0,.32.48.32.5,0Z" transform="translate(0 -0.05)"/>
      <path d="M3,67.67A15.33,15.33,0,0,1,5.26,63c.19-.27-.25-.52-.43-.26a15.58,15.58,0,0,0-2.34,4.79c-.1.31.39.44.48.13Z" transform="translate(0 -0.05)"/>
      <path d="M4.28,68.27a14.59,14.59,0,0,1,5.08-5,.25.25,0,0,0-.25-.44A15.14,15.14,0,0,0,3.85,68c-.17.27.27.52.43.25Z" transform="translate(0 -0.05)"/>
      <path d="M10.88,70a8,8,0,0,1,3.2-5.23c.26-.18,0-.62-.25-.43a8.47,8.47,0,0,0-3.43,5.52c-.05.32.44.45.48.14Z" transform="translate(0 -0.05)"/>
      <path d="M15,69.18l.3-1.49a.24.24,0,0,0-.17-.3.25.25,0,0,0-.31.17l-.3,1.49a.26.26,0,0,0,.17.31.26.26,0,0,0,.31-.18Z" transform="translate(0 -0.05)"/>
      <path d="M13.85,69.38a4,4,0,0,1,1.42-3.25c.25-.21-.1-.56-.35-.35a4.47,4.47,0,0,0-1.57,3.6c0,.32.52.32.5,0Z" transform="translate(0 -0.05)"/>
      <path d="M10.86,69.47l1.35-4c.1-.31-.38-.44-.48-.13l-1.35,4c-.1.3.38.43.48.13Z" transform="translate(0 -0.05)"/>
      <path d="M7.76,70.51A51.52,51.52,0,0,0,11,64.26c.13-.29-.3-.55-.43-.25a51.52,51.52,0,0,1-3.26,6.25c-.17.27.26.52.43.25Z" transform="translate(0 -0.05)"/>
      <path d="M6.45,71.16,9.05,65c.13-.3-.36-.42-.48-.13L6,71c-.13.3.35.43.48.14Z" transform="translate(0 -0.05)"/>
      <path d="M4.49,70.25l2.67-5.67c.14-.29-.29-.55-.43-.26L4.06,70c-.14.29.29.55.43.26Z" transform="translate(0 -0.05)"/>
      <path d="M4,68.87a16,16,0,0,1,.9-4.39c.11-.31-.37-.44-.48-.14a16.74,16.74,0,0,0-.92,4.53c0,.32.48.32.5,0Z" transform="translate(0 -0.05)"/>
      <path d="M.48,67.23a7.6,7.6,0,0,1,3.17-2.66.25.25,0,1,0-.26-.43A8.24,8.24,0,0,0,0,67c-.18.27.26.52.44.25Z" transform="translate(0 -0.05)"/>
      <path d="M7.14,75.79A10,10,0,0,0,12,71.25c.14-.28-.29-.54-.44-.25a9.48,9.48,0,0,1-4.69,4.36c-.29.13,0,.56.26.43Z" transform="translate(0 -0.05)"/>
      <path d="M6.2,61.61A64.15,64.15,0,0,1,12.58,45.5a96.94,96.94,0,0,1,9.67-14.35,39.35,39.35,0,0,1,7-6.88c.25-.19,0-.62-.25-.43C24.31,27.29,20.77,32,17.49,36.71A84.34,84.34,0,0,0,8.8,52.12a60.34,60.34,0,0,0-3.09,9.36c-.07.31.41.45.49.13Z" transform="translate(0 -0.05)"/>
      <path d="M5.64,107a71.2,71.2,0,0,0-2.38,13.18,23,23,0,0,0,.35,6.62,31.8,31.8,0,0,0,2.34,6l3.32,7.32c.13.29.56,0,.43-.25l-2.81-6.19a50.63,50.63,0,0,1-2.56-6.09A19.69,19.69,0,0,1,3.71,121a50.53,50.53,0,0,1,.79-6.71c.44-2.41,1-4.8,1.62-7.18.08-.31-.41-.44-.48-.13Z" transform="translate(0 -0.05)"/>
      <path d="M10.61,139.91c-2.44,4-1.12,9.22,2,12.43,3.65,3.8,9.21,5,14.29,5.18a37.71,37.71,0,0,0,10.47-1.13c.32-.07.18-.56-.13-.48a34.29,34.29,0,0,1-16.48.29c-4.63-1.17-9-4-10.44-8.75a8.88,8.88,0,0,1,.76-7.28.25.25,0,0,0-.43-.26Z" transform="translate(0 -0.05)"/>
      <path d="M47.4,151.74c2.5,2.63,6.4,3.15,9.87,3.17a4.81,4.81,0,0,0,2.64-.71c1-.59,1.87-1.25,2.8-1.87,1.44-1,3.21-1.9,3.79-3.65.11-.3-.38-.43-.48-.13-.56,1.7-2.47,2.62-3.86,3.55-.83.56-1.65,1.14-2.51,1.67a4.71,4.71,0,0,1-2.8.63c-3.22-.08-6.77-.57-9.1-3-.22-.23-.57.12-.35.36Z" transform="translate(0 -0.05)"/>
      <path d="M101.74,114.57a4.62,4.62,0,0,0-3.28,5.4c.63,2.7,3.22,3.84,5.79,3.67,5.81-.39,10.45-4.89,14.5-8.61a27.33,27.33,0,0,0,5.89-7,25.9,25.9,0,0,0,2.6-8.27,64.29,64.29,0,0,0,.8-9.19,15.48,15.48,0,0,0-1.86-8.37,12,12,0,0,0-6.92-5.47,6,6,0,0,0-4.41.33,4.19,4.19,0,0,0-2.2,3c-.05.31.43.45.48.13a3.72,3.72,0,0,1,2.13-2.76,5.63,5.63,0,0,1,4.08-.13,11.53,11.53,0,0,1,6,4.53,13.74,13.74,0,0,1,2.2,7.62,59.92,59.92,0,0,1-.51,8.25,32.31,32.31,0,0,1-1.76,7.77,20.49,20.49,0,0,1-4.44,6.84,76.23,76.23,0,0,1-5.83,5.39,26.83,26.83,0,0,1-6.45,4.31c-2.51,1.1-6.41,2.07-8.56-.22a4.11,4.11,0,0,1,1.88-6.75.25.25,0,0,0-.13-.48Z" transform="translate(0 -0.05)"/>
      <path d="M117.74,81l.05,0a.26.26,0,0,0,0-.3.34.34,0,0,0-.33-.21.27.27,0,0,0-.24.19c-.16.47.34,1,.63,1.32A7.49,7.49,0,0,0,119.14,83c1.09.8,2.33,1.39,3.37,2.26,2.63,2.22,2,5.7.91,8.56-.12.3.36.43.48.13,1-2.56,1.7-5.81-.17-8.16a11.3,11.3,0,0,0-2.93-2.3,17.28,17.28,0,0,1-1.75-1.18,7.5,7.5,0,0,1-.71-.67c-.16-.17-.69-.71-.61-1l-.24.18-.1,0,0-.3,0,0c-.25.21.11.56.35.36Z" transform="translate(0 -0.05)"/>
      <path d="M111.67,88.89a4.24,4.24,0,0,0-.23,3,3.17,3.17,0,0,0,1.47,1.47c1.52.83,3.36,1.09,4.27,2.74s.79,3.82.55,5.62c-.1.81-.43,1.28-1.26,1.37a12.22,12.22,0,0,1-1.81.11,3,3,0,0,1-2.92-1.83c-.25-.76-.46-2-1.52-2.05a.9.9,0,0,0-.81,1.32.25.25,0,0,0,.43-.26c-.21-.34.25-.57.49-.54a1.07,1.07,0,0,1,.51.43,2.48,2.48,0,0,1,.29.74,3.75,3.75,0,0,0,.52,1.31,3.32,3.32,0,0,0,2,1.24,8.55,8.55,0,0,0,3.11,0,1.62,1.62,0,0,0,1.45-1.42,11.36,11.36,0,0,0-.12-5.25,4.86,4.86,0,0,0-3-3.16,10,10,0,0,1-2.43-1.19c-1.16-.93-.85-2.31-.43-3.55.1-.31-.38-.44-.48-.14Z" transform="translate(0 -0.05)"/>
      <path d="M109.19,110.24a8.91,8.91,0,0,1-5.19.7,3.06,3.06,0,0,1-1.94-.92,1.55,1.55,0,0,1,.21-2c1.2-1.32,3.27-.79,4.83-.84,1.33,0,2.87-.56,3.29-2a1.71,1.71,0,0,0-2.17-2.15c-.3.13,0,.56.25.43.74-.31,1.5.47,1.5,1.18a2.06,2.06,0,0,1-1.31,1.71c-1.57.69-3.37,0-5,.37-1.23.25-2.53,1.27-2.37,2.66s1.63,1.91,2.81,2.08a9.49,9.49,0,0,0,5.35-.79c.29-.14,0-.57-.25-.43Z" transform="translate(0 -0.05)"/>
      <path d="M20.41,157.73a44,44,0,0,1,13.7,12.63,67.36,67.36,0,0,1,8.21,17.07c1.16,3.37,2.17,6.78,3.19,10.2a.25.25,0,0,0,.48-.14c-3.62-12.22-7.58-24.81-17-33.89a44.68,44.68,0,0,0-8.31-6.3.25.25,0,0,0-.25.43Z" transform="translate(0 -0.05)"/>
      <path d="M42.25,186.62q.12,3.54,0,7.08c0,1.13-.08,2.27-.14,3.41a6.86,6.86,0,0,0,.25,3c.69,1.72,2.42,2.87,3.78,4l5.45,4.61c.25.21.6-.15.36-.35l-5.08-4.3c-1.42-1.2-3.45-2.47-4.1-4.3a8.2,8.2,0,0,1-.13-3.2c.05-1.1.1-2.19.12-3.29.06-2.24,0-4.47,0-6.71,0-.32-.51-.32-.5,0Z" transform="translate(0 -0.05)"/>
      <path d="M52.62,209.44c3.83-4.86,7.64-9.75,11.5-14.58a110.32,110.32,0,0,1,12-12.81c4.43-4,9.06-7.86,13.62-11.73A177.23,177.23,0,0,1,104,158.92c2.63-1.81,5.28-3.59,7.72-5.65a53.38,53.38,0,0,0,6.72-6.81c.2-.25-.15-.6-.35-.36a53.21,53.21,0,0,1-6,6.15,71,71,0,0,1-6.94,5.25c-2.43,1.66-4.84,3.34-7.15,5.18s-4.6,3.82-6.88,5.76c-9,7.68-18.44,15.1-26,24.3-4.41,5.37-8.63,10.89-12.93,16.35-.2.25.16.6.35.35Z" transform="translate(0 -0.05)"/>
      <path d="M120.53,145.23c-.47.43-.83-1.15-.87-1.34l-.45-1.94-.83-3.63c-.56-2.44-1.17-4.87-1.66-7.33a22.08,22.08,0,0,1-.44-7,18.69,18.69,0,0,1,6-11.59c.24-.22-.12-.57-.36-.36a19.31,19.31,0,0,0-6.09,11.75,23.06,23.06,0,0,0,.49,7.59c.58,2.82,1.27,5.62,1.91,8.42.37,1.61.65,3.27,1.12,4.85.18.62.87,1.6,1.56,1,.24-.22-.12-.58-.35-.36Z" transform="translate(0 -0.05)"/>
      <path d="M85.4,34.72a188.47,188.47,0,0,0-3.14,22.57,96.44,96.44,0,0,0-.46,11,19.09,19.09,0,0,0,2.65,9.52,55.73,55.73,0,0,0,3.35,4.71l4,5.29c.19.25.63,0,.43-.25-2.18-2.89-4.47-5.73-6.51-8.72a19.75,19.75,0,0,1-2.42-4.56,19.16,19.16,0,0,1-1-5.09,81.19,81.19,0,0,1,.32-10.69q.41-5.55,1.13-11.07c.55-4.22,1.26-8.42,2.1-12.59.06-.31-.42-.45-.49-.13Z" transform="translate(0 -0.05)"/>
      <path d="M91.86,80a14.73,14.73,0,0,1,2,7.09.26.26,0,0,0,.43.18.81.81,0,0,0-.4-1.31c-.31-.07-.44.41-.13.48a.3.3,0,0,1,.18.47l.42.18a15.14,15.14,0,0,0-2-7.34.25.25,0,0,0-.43.25Z" transform="translate(0 -0.05)"/>
      <path d="M92.8,82a16.24,16.24,0,0,0,4.5,8.06.26.26,0,0,0,.42-.11,1.16,1.16,0,0,0-.26-1.24c-.22-.24-.57.12-.35.35a.68.68,0,0,1,.12.76l.42-.11a15.91,15.91,0,0,1-4.37-7.84c-.07-.32-.55-.19-.48.13Z" transform="translate(0 -0.05)"/>
      <path d="M94.68,82.2l3.24,7.61c.13.29.56,0,.43-.25L95.11,82c-.13-.3-.56,0-.43.25Z" transform="translate(0 -0.05)"/>
      <path d="M98.37,82.36a19.58,19.58,0,0,0,2.27,7.23c.15.29.58,0,.43-.25a18.87,18.87,0,0,1-2.2-7c0-.31-.54-.32-.5,0Z" transform="translate(0 -0.05)"/>
      <path d="M96.45,86.5a14.15,14.15,0,0,1,4.59,4c.19.26.63,0,.44-.25a14.75,14.75,0,0,0-4.77-4.19.25.25,0,0,0-.26.43Z" transform="translate(0 -0.05)"/>
      <path d="M99.3,82.65l2.5,5.56.62,1.37c.13.3.25.71.6.81.5.14.79-.6.29-.79-.3-.11-.43.37-.13.48a5.68,5.68,0,0,1-.3-.68l-.19-.41-.43-1-.83-1.86-1.7-3.77c-.13-.29-.56,0-.43.25Z" transform="translate(0 -0.05)"/>
      <path d="M104.26,81.94a14.22,14.22,0,0,1,.11,5.13c-.06.3-.12,1.25-.58,1.22s-.32.48,0,.5c.48,0,.76-.39.9-.8a10.2,10.2,0,0,0,.31-2,14.79,14.79,0,0,0-.25-4.2c-.07-.32-.55-.19-.49.13Z" transform="translate(0 -0.05)"/>
      <path d="M104,84.23a26.21,26.21,0,0,0,6.44,3c.31.1.44-.39.13-.48a25.27,25.27,0,0,1-6.32-3c-.27-.17-.52.26-.25.43Z" transform="translate(0 -0.05)"/>
      <path d="M108.37,81.43a21.64,21.64,0,0,1,.14,4.69c0,.32.47.32.5,0a21.68,21.68,0,0,0-.16-4.83c0-.31-.53-.18-.48.14Z" transform="translate(0 -0.05)"/>
      <path d="M109.61,85.78a6.73,6.73,0,0,1,1.61-6.22c.22-.23-.13-.59-.35-.35a7.21,7.21,0,0,0-1.74,6.71c.08.31.56.17.48-.14Z" transform="translate(0 -0.05)"/>
      <path d="M112.78,80.27l1-1.49a.26.26,0,0,0-.09-.34.24.24,0,0,0-.34.09l-1,1.49a.26.26,0,0,0,.09.34.25.25,0,0,0,.34-.09Z" transform="translate(0 -0.05)"/>
      <path d="M91.12,87.36a6.09,6.09,0,0,0,4.43,2.86c.32,0,.31-.46,0-.5a5.58,5.58,0,0,1-4-2.61c-.17-.27-.6,0-.43.25Z" transform="translate(0 -0.05)"/>
      <path d="M36.68.9c-3.79.58-7.8,1.23-10.86,3.74a8.37,8.37,0,0,0-3,9.09c1.09,3.53,3.95,6.33,7,8.28a29.83,29.83,0,0,0,10.44,4,81.09,81.09,0,0,0,13.21,1.08c4.52.12,9,.35,13.52.88a123.54,123.54,0,0,1,13.49,2.35,74.14,74.14,0,0,1,12,3.71c7,2.95,13.65,7.87,16.77,15a23,23,0,0,1,.94,2.68.25.25,0,0,0,.48-.13c-1.94-6.9-7.22-12.3-13.32-15.77-7.21-4.11-15.63-6-23.73-7.43a124.35,124.35,0,0,0-12.9-1.54c-4.44-.29-8.88-.26-13.32-.54-7.7-.47-16.14-2.2-21.49-8.26-2.6-2.94-4.1-7.11-1.86-10.7C26.17,4,30.11,2.59,33.84,1.87c1-.18,2-.34,3-.49.31,0,.18-.53-.14-.48Z" transform="translate(0 -0.05)"/>
      <path d="M35.69,6.11A3,3,0,0,0,34.25,8.9,4.63,4.63,0,0,0,36,12a18.38,18.38,0,0,0,8,3.71,50.14,50.14,0,0,0,9.23,1.09c3.38.16,6.76.27,10.13.56C77,18.6,90.66,21.92,102.78,28.54a72.18,72.18,0,0,1,17,12.79c.22.23.57-.13.35-.36-8.59-8.79-19.51-15-31.12-18.92a106.86,106.86,0,0,0-19.85-4.5c-3.36-.45-6.74-.76-10.13-.95-3.15-.18-6.32-.21-9.47-.49a29,29,0,0,1-10.1-2.42,10.36,10.36,0,0,1-4-2.95c-.91-1.26-1.07-3.34.49-4.19a.25.25,0,0,0-.25-.44Z" transform="translate(0 -0.05)"/>
      <path d="M74.8,11.55C79.88,12.84,85,14.11,90,15.41c4.8,1.23,9.59,2.51,14.28,4.12,8.53,2.91,16.79,7,23.34,13.31a37.32,37.32,0,0,1,8.23,11.48c.13.29.56,0,.43-.25-3.49-7.75-9.81-13.84-17-18.24-8.28-5.09-17.71-7.92-27-10.35-5.77-1.51-11.57-3-17.36-4.41a.25.25,0,0,0-.13.48Z" transform="translate(0 -0.05)"/>
      <path d="M112.12,44a72.74,72.74,0,0,0,10.82,12c2,1.84,4,3.67,6.1,5.42a27.68,27.68,0,0,0,6.57,4.35,13.62,13.62,0,0,0,8.22,1.07c.31-.06.18-.55-.14-.48-5.34,1.11-10.29-1.93-14.21-5.22a137.12,137.12,0,0,1-11.31-10.51,56.8,56.8,0,0,1-5.62-6.86c-.18-.26-.61,0-.43.26Z" transform="translate(0 -0.05)"/>
      <path d="M101.24,53.16C108.64,59,116.32,65,125.56,67.45a31.17,31.17,0,0,0,7.74,1.1c.32,0,.32-.49,0-.5-9.4-.13-17.85-4.87-25.24-10.28-2.19-1.61-4.33-3.28-6.46-5-.25-.2-.61.15-.36.35Z" transform="translate(0 -0.05)"/>
      <path d="M96.62,48.09a15.91,15.91,0,0,0,3.78,10.64,28.47,28.47,0,0,0,10.14,7.49c2.26,1.09,4.59,2,6.92,2.94.3.12.43-.37.13-.48-7.43-3-15.74-6.4-19.23-14.19a14,14,0,0,1-1.24-6.4c0-.32-.48-.32-.5,0Z" transform="translate(0 -0.05)"/>
      <path d="M89.43,51.09c.29,8,6.06,14.62,13.4,17.32a25.28,25.28,0,0,0,6.72,1.44c.32,0,.32-.48,0-.5-7.68-.61-15.06-4.82-18.21-12.06a17.24,17.24,0,0,1-1.41-6.2c0-.32-.51-.32-.5,0Z" transform="translate(0 -0.05)"/>
      <path d="M84.77,60c1.93,3.95,4.81,7.29,7.69,10.57,2.44,2.77,5.19,5.82,9.07,6.28.32,0,.32-.46,0-.5-3.87-.46-6.59-3.72-9-6.47A47.11,47.11,0,0,1,85.2,59.77c-.14-.29-.57,0-.43.25Z" transform="translate(0 -0.05)"/>
      <path d="M36.41,1c6.36,2.14,13.1,1.28,19.61.44A95.21,95.21,0,0,1,66.42.51C70,.44,73.51.64,77.05.86c13,.82,26.67,1.57,38.31,8.05A34.93,34.93,0,0,1,129.06,22c.1.17.43.16.46-.06a9.65,9.65,0,0,1,.81-2.78l-.46-.06c1.16,4.31,3.9,7.87,6.52,11.39a66.06,66.06,0,0,1,7.31,12.16c4.09,9,5.8,18.91,6.32,28.71A108.54,108.54,0,0,1,148,98.91,109.21,109.21,0,0,1,139.12,125a90.72,90.72,0,0,1-6.77,11.8c-2.29,3.29-5.33,6.74-9.37,7.77a9.29,9.29,0,0,1-3,.23c-.32,0-.32.47,0,.5,4,.34,7.46-2,10.08-4.8a54.08,54.08,0,0,0,7.29-11,108.52,108.52,0,0,0,10.14-26.12,110.22,110.22,0,0,0,3.2-27.72c-.13-9.73-1.39-19.73-4.74-28.9a61.8,61.8,0,0,0-6.66-13.12c-2.55-3.81-5.71-7.26-7.7-11.42A18.08,18.08,0,0,1,130.36,19c-.06-.19-.37-.26-.46-.06a10.1,10.1,0,0,0-.86,2.9l.46-.06c-5.84-10.31-17-16-28.23-18.58A131.32,131.32,0,0,0,80.92.61C73.77.14,66.67-.31,59.52.51c-7.6.88-15.51,2.53-23,0-.3-.1-.43.38-.13.48Z" transform="translate(0 -0.05)"/>
      <path d="M3.83,70.31a8,8,0,0,0,.58,4.48,12.08,12.08,0,0,0,2.83,3.57,8.32,8.32,0,0,1,2.67,4.07,15.14,15.14,0,0,1-.05,5.2c0,.32.46.32.5,0a17.31,17.31,0,0,0,.13-4.82,7.38,7.38,0,0,0-2-3.86,29.26,29.26,0,0,1-3.09-3.31,7.38,7.38,0,0,1-1.14-5.19c.05-.32-.44-.45-.48-.14Z" transform="translate(0 -0.05)"/>
      <path d="M58.12,79.78a25.94,25.94,0,0,1,5.34,5.87c.18.27.61,0,.43-.25a26.33,26.33,0,0,0-5.42-6c-.25-.2-.6.15-.35.35Z" transform="translate(0 -0.05)"/>
      <path d="M47.71,92.85a4.57,4.57,0,0,0,3.15-.74c1.21-.72,2.33-1.6,3.47-2.42,2.27-1.64,4.5-3.32,6.71-5,.25-.2-.1-.55-.35-.35-2,1.58-4.12,3.14-6.22,4.66-1,.73-2,1.46-3,2.16a4.94,4.94,0,0,1-3.59,1.24c-.32-.05-.45.43-.14.48Z" transform="translate(0 -0.05)"/>
      <path d="M35,84.2q5.66,3.31,11.6,6c.3.13.55-.3.26-.43a128.81,128.81,0,0,1-11.6-6,.25.25,0,0,0-.26.43Z" transform="translate(0 -0.05)"/>
      <path d="M31.94,71.22a5,5,0,0,0-.45,9.8.25.25,0,0,0,.13-.48,4.49,4.49,0,0,1,.46-8.83c.31,0,.18-.53-.14-.49Z" transform="translate(0 -0.05)"/>
    </g>
  </g>
</svg>
