<svg xmlns="http://www.w3.org/2000/svg" xmlns:xlink="http://www.w3.org/1999/xlink" viewBox="0 0 1440 900"><defs><style>.cls-1,.cls-10,.cls-15,.cls-4{fill:none;}.cls-2{clip-path:url(#clip-path);}.cls-3{fill:#8895b8;}.cls-11,.cls-16,.cls-3,.cls-4,.cls-7,.cls-8{stroke:#000;}.cls-10,.cls-11,.cls-15,.cls-16,.cls-3,.cls-4,.cls-7,.cls-8{stroke-miterlimit:10;}.cls-5{fill:#23160d;}.cls-6,.cls-7{fill:#2b2b2d;}.cls-8{fill:#8c8c8c;opacity:0.38;}.cls-9{fill:#9f8061;}.cls-10{stroke:#9f8061;}.cls-11{fill:#191919;}.cls-12{fill:#f2bc97;}.cls-13{fill:#a8a8ad;}.cls-14{fill:#333566;}.cls-15{stroke:#d6d6d6;}.cls-16{fill:#f4be53;}</style><clipPath id="clip-path"><circle class="cls-1" cx="774.5" cy="451.5" r="409.5"/></clipPath></defs><title>bozo - mascara</title><g id="Layer_16" data-name="Layer 16"><g class="cls-2"><path class="cls-3" d="M352.93,715.7S454.77,874.52,850,860s543.14-143.05,543.14-143.05-70.32-320.07-418.27-287.33Z"/><path class="cls-4" d="M353.54,716.31H515l5-60s5.45,70.75-91.42,44.16c-59.29-16.88-55.65-56.89-54.44-70.23Z"/><path class="cls-4" d="M519.63,650.84c-8.48-23-111.53-60.62-144.27-20.61a35.35,35.35,0,0,0-1.11,5C372,649.07,372.12,688.13,438.4,703,525.69,724.8,520.57,653.39,519.63,650.84Z"/><path class="cls-5" d="M602.68,313.2s23,90.93,143.06,78.8c65.46,1.22,93.35-21.82,93.35-21.82s30.31,33.95,24.25,52.13l7.27-27.88,27.88,27.88v-19.4L911.83,415v-29.1s0-9.7,10.91-8.49,23,2.43,23,2.43l8.48-7.27S917.89,356.84,934.87,335c0,0,0-7.27,32.73,3.64,0,0,1.21-9.7,7.27-12.12s-23-197.62-194-190.34-189.13,114-197.62,145.48l-6.06,37.58S550.55,409,622.08,435.65C622.08,435.65,595.4,366.54,602.68,313.2Z"/><path class="cls-6" d="M936.08,855.12c321.27-27.88,455.84-139.42,455.84-139.42s-18.18-186.7-58.19-219.43-195.19-58.2-195.19-58.2l-150.33-8.48S947,752.07,936.08,855.12Z"/><path class="cls-6" d="M818.48,861.19s-191.55,6.06-318.85-49.71c19.4-84.87,24.25-155.18,20.61-160S509.33,643,509.33,643l10.91-32.73,106.69-65.47,2.42,17s10.91,15.76,110.33,48.5l13.33,9.7s6.06,14.54,12.12,19.39Z"/><path class="cls-7" d="M352.93,715.7c1.82-39.4,20.61-86.07,20.61-86.07s29.1-31.53,97-17c63.65,39.4,50.48,47.23,50.48,47.23s-5,109.77-21.38,151.6C389.91,772.08,356,717.52,352.93,715.7Z"/><path class="cls-8" d="M521.45,662.36c0,24.77-30.31,50.92-75.17,41.22-39.92-8.63-77.59-30.31-73.95-67.89,2.39-24.66,33.95-19.4,69.11-19.4C482.28,616.29,521.45,637.59,521.45,662.36Z"/><path class="cls-9" d="M605.66,288.26a276.89,276.89,0,0,1,35.91-17.38c6.19-2.46,12.45-4.74,18.79-6.79s12.79-3.77,19.28-5.28a188.11,188.11,0,0,1,19.71-3.33c3.32-.36,6.63-.67,10-.83,1.66-.12,3.33-.16,5-.2l2.5-.07,2.5,0a128.54,128.54,0,0,1,19.88,1.8c6.56,1.14,13.05,2.66,19.47,4.42s12.79,3.74,19.06,6,12.5,4.6,18.66,7.14,12.24,5.23,18.29,8,12,5.76,17.93,8.81,11.79,6.16,17.55,9.51,11.48,6.74,17.1,10.31,11.1,7.36,16.42,11.38c1.33,1,2.63,2,3.93,3.08s2.57,2.13,3.78,3.28l1.83,1.71,1.74,1.8c.58.6,1.08,1.27,1.62,1.91s.94,1.38,1.42,2.07l-.18.1c-.5-.66-.92-1.37-1.48-2s-1.08-1.24-1.68-1.82l-1.8-1.7L891,328.57c-1.24-1.09-2.59-2.06-3.88-3.09s-2.66-2-4-2.94c-5.4-3.84-11-7.39-16.65-10.86-11.33-6.89-23-13.25-34.77-19.32-23.64-12-47.94-22.86-73.29-30.68-12.67-3.82-25.77-6.71-39.06-6.57h-2.48l-2.48.1c-1.66.07-3.31.1-5,.27-3.31.25-6.59.66-9.87,1.11A198.4,198.4,0,0,0,680,260.43c-6.45,1.51-12.8,3.38-19.13,5.33s-12.58,4.17-18.76,6.55a368.23,368.23,0,0,0-36.37,16.12Z"/><path class="cls-9" d="M619,290.67c10.42-1.82,20.94-3,31.47-3.84,5.27-.4,10.55-.76,15.83-1,2.64-.16,5.28-.23,7.93-.29s5.28-.11,7.92-.14,5.29,0,7.93,0,5.29.07,7.93.17c5.28.13,10.56.37,15.84.55,10.56.48,21.11,1,31.65,1.87s21.05,2,31.51,3.64,20.85,3.69,31.13,6.22a303.54,303.54,0,0,1,30.38,9.2,262.42,262.42,0,0,1,29.07,12.69l-.08.18c-4.88-2-9.68-4.21-14.64-6l-3.69-1.43c-1.22-.48-2.45-.95-3.7-1.36L838,308.57c-2.49-.87-5-1.59-7.53-2.39L826.74,305c-1.26-.37-2.53-.7-3.8-1.06l-7.61-2.12-7.66-1.92c-2.54-.68-5.12-1.2-7.69-1.78s-5.13-1.16-7.72-1.66l-7.75-1.56-7.78-1.37c-10.39-1.73-20.82-3.27-31.31-4.41-2.62-.33-5.24-.55-7.87-.8s-5.25-.51-7.89-.66l-7.89-.5c-2.64-.14-5.28-.2-7.91-.31l-7.92-.16c-2.63,0-5.27,0-7.91,0s-5.27.06-7.91.12l-4,.09-4,.13c-21.08.55-42.15,1.64-63.15,3.81Z"/><path class="cls-9" d="M682.06,202.17a240.85,240.85,0,0,1,29-6.28,278,278,0,0,1,29.51-3.12c9.89-.45,19.78-.33,29.66,0s19.74,1.06,29.55,2.33a198.3,198.3,0,0,1,29.13,5.78q7.15,2,14.15,4.6c4.66,1.74,9.22,3.72,13.69,5.87a146.38,146.38,0,0,1,13,7.25,143.4,143.4,0,0,1,12.17,8.59A131.89,131.89,0,0,1,893,237.14l2.59,2.67c.86.89,1.65,1.85,2.48,2.77,1.67,1.82,3.18,3.78,4.74,5.69l-.15.13c-3.32-3.65-6.74-7.2-10.36-10.53s-7.4-6.47-11.34-9.4a152.26,152.26,0,0,0-25.16-15.16c-4.42-2.12-8.93-4.05-13.49-5.84s-9.24-3.33-13.94-4.74a238.8,238.8,0,0,0-28.76-6.51c-4.87-.78-9.75-1.46-14.66-1.87s-9.83-.77-14.76-.89c-9.86-.23-19.72.23-29.54,1s-19.62,1.67-29.39,3-19.49,2.9-29.15,5Z"/><path class="cls-9" d="M751.21,197.32a262.9,262.9,0,0,1,26.72,4.41c8.82,1.91,17.59,4.13,26.22,6.79s17.13,5.74,25.57,8.93,16.86,6.44,25.17,10a262.68,262.68,0,0,1,47.5,26.06,212.1,212.1,0,0,1,21.06,17.12,172.93,172.93,0,0,1,18.16,20.11l-.15.12a228.66,228.66,0,0,0-19.06-19.07c-1.69-1.48-3.43-2.9-5.15-4.35-.86-.72-1.7-1.46-2.59-2.15L912,263.21l-2.66-2c-.89-.7-1.77-1.38-2.69-2l-5.48-3.92c-1.83-1.3-3.72-2.51-5.58-3.77l-2.8-1.87-2.85-1.78c-1.91-1.18-3.78-2.43-5.72-3.56l-5.83-3.39c-7.84-4.39-15.81-8.56-23.94-12.43S838,221.1,829.5,218.06l-6.39-2.19-6.45-2q-6.46-1.95-13-3.73c-17.32-4.88-34.78-9.26-52.5-12.6Z"/><path class="cls-9" d="M757.33,295.69a21.34,21.34,0,0,1-2.05,1.87l-1.09.85-1.15.77a27.1,27.1,0,0,1-2.34,1.48c-.79.46-1.58.95-2.41,1.35-1.64.83-3.29,1.67-5,2.39-.85.36-1.68.76-2.54,1.1l-2.57,1a151.53,151.53,0,0,1-21.15,6.2c-7.19,1.51-14.45,2.57-21.69,3.63-1.81.31-3.63.51-5.44.78l-5.44.79-10.89,1.43c-3.64.44-7.28.86-10.93,1.23l-10.93,1q-10.92,1-21.82,2.14c-3.64.36-7.26.78-10.88,1.22a76.14,76.14,0,0,0-10.66,1.91,10.86,10.86,0,0,0-2.36.94,1.81,1.81,0,0,0-.71.64.73.73,0,0,0,0,.73,9.14,9.14,0,0,0,1.57,2,11.59,11.59,0,0,0,1,.92,5.91,5.91,0,0,0,1,.75,7.87,7.87,0,0,0,5,.85,15.28,15.28,0,0,0,5.08-1.76l.11.16A14.31,14.31,0,0,1,614,334.3a8.4,8.4,0,0,1-5.63-.59,7.21,7.21,0,0,1-1.23-.8,12.78,12.78,0,0,1-1.08-.94,9.64,9.64,0,0,1-1.92-2.22,2.14,2.14,0,0,1-.12-1.89,3.1,3.1,0,0,1,1.19-1.28,10.76,10.76,0,0,1,2.67-1.21A77.07,77.07,0,0,1,618.76,323c3.63-.58,7.28-1,10.92-1.43,14.58-1.59,29.22-2.34,43.79-3.36,3.64-.36,7.29-.6,10.92-1.05s7.27-.87,10.87-1.51l5.39-1c1.8-.32,3.58-.76,5.37-1.13s3.57-.75,5.34-1.2l5.32-1.31c7.06-1.79,14.11-3.66,21-6,1.72-.61,3.44-1.19,5.13-1.87s3.36-1.37,5-2.11a42.69,42.69,0,0,0,9.35-5.52Z"/><path class="cls-9" d="M644.54,357.55c-1.93.73-3.89,1.35-5.87,1.91a56.28,56.28,0,0,1-6,1.4,24.46,24.46,0,0,1-6.3.36A6.09,6.09,0,0,1,623.1,360a3.25,3.25,0,0,1-1.05-1.65,5.05,5.05,0,0,1-.13-.95,2.32,2.32,0,0,1,.31-1.11,4.68,4.68,0,0,1,1.25-1.35,10.59,10.59,0,0,1,1.39-.9,25.82,25.82,0,0,1,2.87-1.36c2-.78,3.92-1.42,5.91-2,4-1.17,8-2.08,12-2.87,8.1-1.55,16.25-2.61,24.39-3.71s16.28-2.18,24.45-3.1c4.08-.45,8.18-.88,12.29-1.13,2.05-.13,4.11-.24,6.17-.3s4.09-.05,6.13-.18a163.4,163.4,0,0,0,24.2-3.34,151.44,151.44,0,0,0,23.5-6.68,63.6,63.6,0,0,0,11-5.31,24.58,24.58,0,0,0,4.7-3.78A8.83,8.83,0,0,0,785,315h.2a8.93,8.93,0,0,1-2.29,5.72,23.6,23.6,0,0,1-4.62,4.2,60.47,60.47,0,0,1-10.93,5.92,134,134,0,0,1-23.65,7.32,142.64,142.64,0,0,1-24.56,3.13c-2.06.09-4.16.07-6.18.07s-4.08,0-6.12.11c-4.09.16-8.19.35-12.27.64-8.18.57-16.35,1.44-24.46,2.66-4,.61-8.09,1.34-12.11,2.13s-8,1.64-12,2.56-8,1.84-11.89,2.94c-2,.55-3.9,1.16-5.77,1.88a23.87,23.87,0,0,0-2.72,1.21,5.64,5.64,0,0,0-2.07,1.59.9.9,0,0,0-.13.35,3.55,3.55,0,0,0,.07.57,1.88,1.88,0,0,0,.54.93,4.89,4.89,0,0,0,2.45,1,23,23,0,0,0,6-.09,88.54,88.54,0,0,0,12-2.46Z"/><path class="cls-9" d="M626.34,344.21a57.14,57.14,0,0,1-5.67,1.38,28.43,28.43,0,0,1-5.86.65,9,9,0,0,1-1.54-.16,3.16,3.16,0,0,1-1.6-.75,1.72,1.72,0,0,1-.27-2.05,3.52,3.52,0,0,1,1.25-1.22,21.81,21.81,0,0,1,5.58-2.22,105.67,105.67,0,0,1,11.47-2.38c3.84-.63,7.7-1.1,11.56-1.49,7.73-.75,15.49-1.14,23.23-1.65a102,102,0,0,0,22.8-3.93c7.46-2.05,14.78-4.55,22-7.17s14.42-5.59,21.5-8.68,14.11-6.3,20.95-9.89c3.41-1.8,6.81-3.64,10.06-5.71,1.62-1.05,3.24-2.1,4.75-3.28a15,15,0,0,0,4-4.09l.19.08a14.56,14.56,0,0,1-3.75,4.5c-.71.68-1.49,1.25-2.24,1.89s-1.56,1.17-2.35,1.74q-4.8,3.36-9.88,6.24c-6.77,3.84-13.74,7.32-20.85,10.47S717.31,322.43,710,325a210.74,210.74,0,0,1-22.41,6.47,139.12,139.12,0,0,1-23,3.5c-3.86.33-7.71.74-11.56,1.2s-7.68.94-11.52,1.46c-7.65,1.05-15.36,1.95-22.82,3.72a22.71,22.71,0,0,0-5.28,1.84,2.45,2.45,0,0,0-.86.71.49.49,0,0,0,0,.62,2,2,0,0,0,1,.48,7.21,7.21,0,0,0,1.34.2A53.16,53.16,0,0,0,626.3,344Z"/><path class="cls-9" d="M664,381.05a11.16,11.16,0,0,1-6,3.55,8,8,0,0,1-3.63-.12,6.92,6.92,0,0,1-1.7-.67l-.81-.43-.73-.54-.73-.55-.64-.63-.64-.64-.16-.16a3,3,0,0,1-.2-.29,1.38,1.38,0,0,1-.13-.42,1.08,1.08,0,0,1,.07-.48,1.74,1.74,0,0,1,.93-.88,5.7,5.7,0,0,1,.9-.37c.59-.18,1.17-.32,1.75-.44a64.47,64.47,0,0,1,7-.92c4.65-.42,9.29-.64,13.94-.84s9.29-.33,13.93-.42c9.29-.14,18.58-.13,27.86-.42s18.55-.86,27.8-1.63c18.49-1.6,37-3.39,55.17-6.81q6.83-1.26,13.54-3a103.59,103.59,0,0,0,13.15-4.18,46.11,46.11,0,0,0,12-6.61,20.79,20.79,0,0,0,4.56-5,14.32,14.32,0,0,0,2.08-6.47h.2a14.1,14.1,0,0,1-1.72,6.79,20.33,20.33,0,0,1-4.46,5.48,45.33,45.33,0,0,1-12,7.28,133.47,133.47,0,0,1-26.9,7.79c-9.16,1.77-18.41,2.94-27.67,3.87s-18.54,1.54-27.83,1.94L715,376l-27.84,1.44c-9.27.42-18.56.58-27.8,1.13-2.3.17-4.61.32-6.86.68-.55.09-1.1.2-1.63.34a4.68,4.68,0,0,0-.72.26,1.45,1.45,0,0,0-.37.22c0-.12-.09-.11.18.16l.58.61.57.62.64.52a7.84,7.84,0,0,0,6.12,1.92,11.18,11.18,0,0,0,6-3Z"/><path class="cls-9" d="M600.92,321.16a105.25,105.25,0,0,0-13.07,17.1,38.76,38.76,0,0,0-4.56,9.7,26.51,26.51,0,0,0-.87,5.31,23.22,23.22,0,0,0,.37,5.33c1.69,6.93,4,13.85,6.28,20.68s4.62,13.7,7,20.56l-.18.09a128.93,128.93,0,0,1-8.87-20c-1.19-3.44-2.22-7-3.15-10.47-.47-1.76-.89-3.54-1.28-5.32-.19-.89-.38-1.78-.55-2.68s-.31-1.83-.37-2.76a34.94,34.94,0,0,1,1-10.94c.44-1.78.94-3.55,1.55-5.29a50.32,50.32,0,0,1,2.19-5.07,46.86,46.86,0,0,1,6.32-9A49,49,0,0,1,600.8,321Z"/><path class="cls-9" d="M602.75,332.06A126.54,126.54,0,0,0,590.83,353a38,38,0,0,0-3.46,11.44,21,21,0,0,0,.19,6c.36,1.95,1.08,3.87,1.63,5.82Q591,382,592.54,387.9l3.22,11.7c1,3.9,2.13,7.78,3.35,11.61a58.28,58.28,0,0,0,2.07,5.63,25.59,25.59,0,0,0,1.36,2.66,5.93,5.93,0,0,0,2,2.11l-.07.19a5.78,5.78,0,0,1-2.44-1.93,17.06,17.06,0,0,1-1.74-2.57,49.42,49.42,0,0,1-2.65-5.55,117.69,117.69,0,0,1-3.92-11.58c-1.13-3.91-2.06-7.86-3-11.81s-1.77-7.91-2.59-11.88c-.42-2-.92-3.93-1.24-6a28,28,0,0,1-.17-6.14,44.26,44.26,0,0,1,2.56-12A54.94,54.94,0,0,1,595,341.46a61.69,61.69,0,0,1,7.65-9.53Z"/><path class="cls-9" d="M601.87,347.73a32.33,32.33,0,0,0-4,10.49,60.21,60.21,0,0,0-1.41,11.19l-.07,1.41v1.42l0,2.82c.1,1.88.08,3.77.27,5.65s.27,3.76.53,5.62l.35,2.81.46,2.79a155,155,0,0,0,5.39,22,129.28,129.28,0,0,0,8.7,21l-.59.18-1-9-1-9c-.7-6-1.46-12-2.12-18l-2-18c-.65-6-1.3-12-1.89-18l2.13-.21c.48,4.86,1,9.73,1.6,14.59s1.21,9.72,2,14.55,1.54,9.67,2.61,14.43c.54,2.39,1.11,4.76,1.83,7.09a22.88,22.88,0,0,0,3,6.62l-.15.13a22.3,22.3,0,0,1-3.47-6.53c-.86-2.31-1.58-4.68-2.21-7.06-1.26-4.76-2.31-9.57-3.18-14.41s-1.64-9.7-2.34-14.56-1.28-9.74-1.76-14.65l2.13-.21c.61,6,1.17,12,1.73,18L609,399c.55,6,1,12,1.5,18l.76,9,.85,9,.15,1.58-.73-1.4c-1.78-3.38-3.38-6.83-4.93-10.31s-3-7-4.31-10.58-2.49-7.22-3.58-10.88a109.12,109.12,0,0,1-2.49-11.2,94.85,94.85,0,0,1-1.14-22.89A62.27,62.27,0,0,1,596.92,358a45.3,45.3,0,0,1,1.92-5.42,21.51,21.51,0,0,1,2.87-5Z"/><path class="cls-9" d="M630,201.13a56.36,56.36,0,0,0-7.17,7.65,30.14,30.14,0,0,0-5,9.06,13.73,13.73,0,0,0-.62,5,10.65,10.65,0,0,0,1.49,4.7,13.76,13.76,0,0,0,3.37,3.69l1,.77a9.76,9.76,0,0,0,1,.61,10.56,10.56,0,0,0,2.31.82,26.3,26.3,0,0,0,10.14-.27,94.38,94.38,0,0,0,10.12-2.58c6.68-2.06,13.33-4.35,20-6.59s13.42-4.27,20.25-6c3.42-.87,6.86-1.64,10.33-2.28s6.94-1.21,10.46-1.54a72.77,72.77,0,0,1,21.09.75A52.36,52.36,0,0,1,739,218.08c1.62.72,3.21,1.54,4.74,2.4s3.08,1.67,4.63,2.48c12.48,6.42,25.32,12.12,38.14,17.87s25.74,11.28,38.55,17.06,25.62,11.61,38.22,17.9c6.29,3.15,12.51,6.45,18.58,10a100.34,100.34,0,0,1,8.85,5.79A42.55,42.55,0,0,1,894.8,295a12.72,12.72,0,0,1,3.18,4.23l-.19.07a12.58,12.58,0,0,0-3.27-4,46.11,46.11,0,0,0-4.17-3.16c-2.89-2-5.94-3.71-9-5.43-6.13-3.4-12.44-6.47-18.77-9.51s-12.72-5.94-19.13-8.81l-19.24-8.6q-19.29-8.49-38.49-17.23c-12.78-5.86-25.53-11.84-37.88-18.62-1.54-.85-3.08-1.71-4.59-2.6s-3-1.72-4.61-2.47a47.19,47.19,0,0,0-9.91-3.27,61.63,61.63,0,0,0-10.4-1.22,78.07,78.07,0,0,0-10.48.47,122.44,122.44,0,0,0-20.57,4.2c-6.74,1.92-13.38,4.19-20,6.51s-13.25,4.72-20,6.7a94.86,94.86,0,0,1-10.33,2.52,28,28,0,0,1-10.79.14,11.4,11.4,0,0,1-2.63-1,9.37,9.37,0,0,1-1.22-.73l-1.07-.86a15.22,15.22,0,0,1-3.59-4.15,11.94,11.94,0,0,1-1.53-5.29,15,15,0,0,1,.8-5.39,29.19,29.19,0,0,1,5.42-9.16,50.78,50.78,0,0,1,7.57-7.38Z"/><path class="cls-9" d="M914.9,369.48c5.46,1.47,10.78,3.33,16,5.32,2.64,1,5.2,2.17,7.77,3.32s5.15,2.31,7.78,3.29l-.32.51c-3.23-3-6.71-5.8-10-8.71l-5-4.43c-1.64-1.49-3.3-3-4.91-4.49l-6-5.73,7.31,4c1.62.9,3.21,1.86,4.82,2.79s3.18,1.9,4.76,2.88,3.14,2,4.7,3,3.11,2,4.64,3.1l-.1.17c-1.7-.76-3.39-1.53-5.06-2.35s-3.34-1.62-5-2.48-3.29-1.7-4.94-2.57-3.27-1.74-4.88-2.67l1.26-1.71c1.62,1.51,3.2,3.07,4.79,4.61l4.74,4.66c3.12,3.15,6.11,6.44,9.34,9.47l1.17,1.1-1.49-.59c-2.62-1-5.29-1.92-8-2.77s-5.38-1.69-8-2.74c-5.24-2.05-10.44-4.23-15.47-6.8Z"/><path class="cls-10" d="M897.89,421.71c4.85-8.49-30.31-58.2-30.31-58.2"/><path class="cls-10" d="M862.73,374.42s23,26.68,25.46,33.95"/><path class="cls-10" d="M902.74,359.88s4.85,31.52,7.27,43.64-21.82-33.95-21.82-33.95"/><g id="gravata"><path class="cls-11" d="M830,688.42l47.28,3.64s26.59-56.69,53.3-65.93l-32.69-16.51L859.09,629s-29.09,23-47.28,21.82C811.81,650.84,832.42,683.58,830,688.42Z"/><path class="cls-11" d="M823.93,860.58C807,764.8,830,688.42,830,688.42l47.28,3.64L918.5,854.52S853,860.58,823.93,860.58Z"/></g><path class="cls-4" d="M627.53,545.37,518.42,613.26H405.67s-25.46,2.42-33.95,21.82c-8.48,20.61-14.54,49.71-19.39,80,57,72.74,219.43,150.33,465.54,145.48-6.06-48.49-53.34-220.65-53.34-220.65s-10.91-12.12-12.12-20.61L733,608.41s-92.14-30.31-100.63-43.65S627.53,545.37,627.53,545.37Z"/><path class="cls-4" d="M697.85,597.5l-48.5,33.94s60.62,218.23,63,224.29"/><path class="cls-4" d="M779.08,690.24s10.91-39.4,19.39-39.4-14,1.63-33.07-7.67Z"/><path class="cls-4" d="M897.89,610.83s64.25,31.53,64.25,35.16,17-141.84,21.83-157.6l-12.13-10.92-9.7,9.7s0,48.5-15.76,71.53S925.77,590.22,897.89,610.83Z"/><path class="cls-4" d="M830,689.64l47.28,3.63s26.59-56.69,53.3-65.93l-32.69-16.51-38.8,19.4s-29.09,23-47.28,21.82C811.81,652.05,832.42,684.79,830,689.64Z"/><path class="cls-4" d="M823.93,861.79C807,766,830,689.64,830,689.64l47.28,3.63L918.5,855.73S853,861.79,823.93,861.79Z"/><path class="cls-4" d="M1144,439.89s150.33,19.4,190.34,57,58.19,219.44,58.19,219.44l-80,46.07S1277.36,669,1264,661.75s-43.64-21.82-43.64-21.82-55.77-76.38-71.53-77.59c0,0-9.7-12.12-9.7-20.61S1144,439.89,1144,439.89Z"/><path class="cls-4" d="M1089.44,693.27s49.71-127.29,59.41-130.93,71.53,77.59,71.53,77.59,43.27,21,47.09,24.46,46.26,90.71,45,98c0,0-179.42,84.86-377,93.35,12.12-98.2,48.5-367.34,48.5-367.34l12.12,13.33s9.7,115.18,54.56,144.27Z"/><path class="cls-12" d="M490.54,703s-49.71,17-103-25.46c0,0,25.45-75.16,29.09-112.75S403.25,458.08,406.88,452s71.53-78.8,75.17-82.44,86.08-54.55,94.56-49.7c-7.88,23.64-4.85,60.62,0,69.1s6.07,10.91,6.07,10.91L531.76,429s50.92-23,53.34-21.82,21.82,15.76,21.82,15.76-43.64,53.34-49.7,60.62-15.77,26.67-15.77,29.09-4.84,71.53-21.82,98.2C509.93,642.36,490.54,692.06,490.54,703Z"/><path class="cls-12" d="M1088.83,692.67l59.41-130.94s-9.7-15.76-9.7-20.61,6.06-103,4.85-105.47S1125.21,415,1125.21,415L1107,406.55s-75.17-72.74-128.51-82.44c0,0-12.12,6.06-10.91,14.55l-30.31-7.27S913,356.84,964,377.45l15.76,13.34s-61.83-24.25-67.89-8.49,14.55,27.89,29.1,26.68c0,0,33.94,21.82,37.58,23s43.65,38.8,43.65,38.8-41.23-29.1-47.29-30.31-37.58-17-42.43-6.06,6.06,23,6.06,23,4.85,7.27,32.74,20.61c0,0,23,19.4,24.24,23S1010,628.41,1047.61,643Z"/><path class="cls-12" d="M920.32,590.83c22.56-27.07,43.64-47.28,42.43-104.26l8.49-8.49,17-95.78L962.75,375,930,409s-19.4-10.92-18.19-14.55,0,21.82,0,21.82l-14.55-13.34v19.4l-26.67-29.09-7.27,29.09S859.7,385.94,839.09,369c0,0-21.82,30.31-141.85,20.61-75.16-7.28-94.56-76.38-94.56-76.38s-4.85,58.19,17,115.17,0,41.22,6.06,54.56,127.3,137,127.3,137,3.64,29.09,42.43,31.52,66.68-21.82,66.68-21.82S914.26,598.1,920.32,590.83Z"/><path class="cls-13" d="M859.7,468.38v-4.85S972.45,353.21,976.09,352s40-12.13,40-12.13l6.07,3.64-42.44,14.55Z"/><path class="cls-13" d="M898.49,555.67c-1.21-1.21,0,6.06,0,6.06l72.75-84.86-3.64-1.21Z"/><polygon class="cls-13" points="616.01 461.11 619.65 457.47 522.66 343.51 515.39 348.36 616.01 461.11"/><polygon class="cls-13" points="620.96 487.31 587.01 442.92 583.1 448.14 622.26 493.84 620.96 487.31"/><path class="cls-14" d="M898.49,559.31s-2.42-3.64-14.54,2.42-19.4-44.85-21.83-57S867,466,856.06,457.47c0,0-42.43,38.8-128.51,46.07S618.44,474.44,616,457.47s8.49,37.58,3.64,47.28,12.13,59.41,12.13,59.41,57,36.37,107.9,46.07c0,0,35.15,25.46,55.76,25.46S888.8,575.07,898.49,559.31Z"/><path class="cls-6" d="M690,512l20.61-12.13s-65.47-23-70.32-27.88c-2.71-2.71-13.33-9.7-13.33-9.7v24.25Z"/><polygon class="cls-6" points="739.67 501.12 744.52 514.45 817.27 484.14 856.06 457.47 806.36 457.47 739.67 501.12"/><line class="cls-15" x1="752.41" y1="496.87" x2="760.89" y2="515.06"/><line class="cls-15" x1="760.89" y1="488.39" x2="779.08" y2="507.78"/><line class="cls-15" x1="782.71" y1="483.54" x2="804.54" y2="500.51"/><line class="cls-15" x1="797.26" y1="470.2" x2="806.96" y2="488.39"/><polyline class="cls-15" points="832.42 473.84 811.81 462.93 813.02 488.39 806.96 461.71"/><polyline class="cls-15" points="697.85 500.51 682.09 512.63 686.94 496.87 673.6 507.78"/><line class="cls-15" x1="657.84" y1="500.51" x2="678.45" y2="496.87"/><line class="cls-15" x1="627.53" y1="488.39" x2="638.44" y2="473.84"/><line class="cls-15" x1="656.63" y1="505.36" x2="661.48" y2="492.02"/><line class="cls-15" x1="631.17" y1="490.81" x2="646.93" y2="479.9"/><polyline class="cls-15" points="656.63 483.54 640.87 500.51 640.87 477.47"/><path class="cls-4" d="M491.75,698.12s19.4-64.25,21.82-72.74,27.88-57,26.67-106.69c0,0-6.06-14.54,66.68-93.35,0,0-29.09-9.7-30.31-55.77,0,0-3.63-33.94,0-47.28,3.26-11.93-89.71,42.44-94.56,46.07s-52.13,63-71.53,77.59c-12.12,9.7,6.06,70.32,7.27,106.69s-30.3,126.09-30.3,126.09S431.13,717.52,491.75,703C492.7,702.22,491.75,698.12,491.75,698.12Z"/><path class="cls-4" d="M451.74,438.68s35.16-21.82,46.07-37.58,30.31-14.55,30.31-14.55,44.23-14.41,48.79-11.45"/><path class="cls-4" d="M451.74,415.64s37.58-36.37,47.28-41.22,26.67-6.06,44.86-15.76,26.29-13.12,29.1-9.7"/><path class="cls-4" d="M482.05,462.93s35.16-31.53,44.86-32.74,50-25.64,60.75-21.31"/><path class="cls-4" d="M520.84,564.76s1.22-52.13-10.91-59.4c0,0,8.49-13.34,10.91-24.25,0,0,21.83-8.49,27.89-21.82,0,0,25.46-12.12,27.88-20.61,0,0,22.89-7.67,24.17-16.56"/><path class="cls-4" d="M531.16,429s3,0,10.29-7.3,39.19-14,41.42-21.57"/><path class="cls-4" d="M984,393.82s-14.55-10.91-19.4-17c0,0-47.28-15.76-30.31-41.22,0,0,3.64-12.13,49.71,12.12,0,0,46.07,23,53.34,29.1s42.43,40,42.43,40"/><path class="cls-4" d="M968.21,339.27s0-17,15.76-14.55,71.52,40,71.52,40,38.8,25.45,47.29,38.79c0,0,6.06,4.85,10.91,6.06s12.12,4.85,13.33,7.28,9.7,10.91,12.13,13.33,9.7,6.06,2.42,43.65c0,0-6.06,63-1.21,71.53l8.49,17S1093.08,669,1089.44,693.27c0,0-21.82-24.24-41.22-50.91,0,0-38.79-15.77-52.13-140.64,0,0-10.91-15.76-27.88-25.46s-38.8-14.55-36.38-40c0,0-2.42-12.12,31.53,0A181,181,0,0,0,984,446c9.69,3.64,42.43,26.67,42.43,26.67s-37.58-30.3-48.5-41.22c0,0-29.09-15.76-37.58-23,0,0-32.73-2.42-27.88-26.67,2.33-11.68,41.18.42,66.62,9.7,3.1,1.13,6,2.22,8.61,3.22,8,3.05,13.27,5.26,13.27,5.26l49.71,38.8"/><path class="cls-4" d="M974.27,324.72S963.36,134.38,773,136.8,576.91,319.36,576.91,319.36s-29,86.59,46.57,116.29c0,0-29.89-74.56-20.19-119.42,0,0,27.37,79.54,119.76,75.53,0,0,97.25,3.27,116.65-22.19,0,0,29.09,35.16,23,54.56L870,393.82l26.68,27.89v-19.4l15.76,12.12v0l-15.76-12.12v19.4L870,393.82c-1.21,12.13-7.27,27.89-7.27,27.89,2.42-24.25-23-52.14-23-52.14-17,21.83-92.14,26.68-151.55,19.4s-84.86-72.74-84.86-72.74c-7.28,27.88,8.48,98.2,17,112.75s8.48,33.95,8.48,33.95"/><path class="cls-4" d="M616.62,458.08s3.64,54.55,104.26,46.07,130.94-49.71,135.79-46.07,7.27,21.82,6.06,47.28,12.12,57,17,59.4,9.7-9.69,18.19-7.27-78.81,81.23-103,77.59-58.2-24.25-61.83-26.67-72.74-21.82-101.84-43.65c0,0-12.12-48.49-9.7-55.76S615.41,462.93,616.62,458.08Z"/><path class="cls-4" d="M627.53,509s84.87,48.49,101.84,46.07,129.72-54.56,133.36-49.71"/><path class="cls-4" d="M856.67,476.26s-37.79,43.67-53.45,50.33"/><path class="cls-4" d="M733,608.41s27.88,6.06,40,0S879.7,564.76,879.7,564.76"/><path class="cls-4" d="M859.65,462.93s111-110.33,119.47-111.54S1016.26,340,1016.26,340l6.07,3.6s-37.15,10.18-40.79,12.61S861.13,468.38,861.13,468.38Z"/><polygon class="cls-4" points="897.89 555.07 968.21 476.26 971.51 478.27 898.47 562.34 897.89 555.07"/><path class="cls-4" d="M620.26,458.08s-94.19-115.71-96.8-114.23-7.46.26-3.83,5.11,96.87,114,96.87,114S615.41,455.65,620.26,458.08Z"/><polygon class="cls-4" points="620.26 487.78 587.66 446.79 584.66 450.25 620.26 493.44 620.26 487.78"/><path class="cls-4" d="M752.41,619.32s1.21,29.1,46.06,31.52,64.26-19.4,89.72-63"/><path class="cls-4" d="M962.14,487.17s1.22,58.2-27.88,90.93-77.59,53.24-77.59,53.24"/><path class="cls-4" d="M877.55,605.16s11.85,2,20.34-5.24"/><line class="cls-4" x1="926.98" y1="529.61" x2="914.86" y2="562.34"/><path class="cls-4" d="M646.93,416.86c8.49,3.63,36.37,14.54,55.77,12.12s66.68-12.12,82.44-12.12"/><path class="cls-4" d="M650.57,442.32s32.73,2.42,52.13,8.48,26.67-13.33,76.38-21.82"/><path class="cls-4" d="M657.84,462.93s20.61-3.64,25.46,0"/><path class="cls-4" d="M728.16,467.78s42.43-10.92,65.47-24.25"/><path class="cls-4" d="M706.34,479.9s14.54,18.18,8.48,25.46"/><line class="cls-4" x1="711.19" y1="496.87" x2="697.85" y2="515.06"/><line class="cls-4" x1="697.85" y1="493.24" x2="690.57" y2="509"/><line class="cls-4" x1="697.85" y1="500.51" x2="690.57" y2="515.06"/><path class="cls-4" d="M686.94,500.51,678.45,509Z"/><line class="cls-4" x1="683.3" y1="509" x2="690.57" y2="496.87"/><line class="cls-4" x1="676.03" y1="502.93" x2="686.94" y2="496.87"/><line class="cls-4" x1="669.96" y1="504.15" x2="678.45" y2="496.87"/><line class="cls-4" x1="661.48" y1="500.51" x2="673.6" y2="496.87"/><line class="cls-4" x1="669.96" y1="492.02" x2="657.84" y2="500.51"/><line class="cls-4" x1="661.48" y1="487.17" x2="650.57" y2="496.87"/><line class="cls-4" x1="652.99" y1="499.3" x2="661.48" y2="492.02"/><line class="cls-4" x1="644.51" y1="495.66" x2="659.05" y2="487.17"/><line class="cls-4" x1="640.87" y1="493.24" x2="656.63" y2="483.54"/><line class="cls-4" x1="627.53" y1="462.93" x2="627.53" y2="476.26"/><line class="cls-4" x1="632.38" y1="466.56" x2="629.96" y2="476.26"/><line class="cls-4" x1="637.23" y1="470.2" x2="629.96" y2="479.9"/><line class="cls-4" x1="629.96" y1="482.32" x2="638.44" y2="473.84"/><line class="cls-4" x1="640.87" y1="476.26" x2="629.96" y2="484.75"/><line class="cls-4" x1="640.87" y1="477.47" x2="633.59" y2="487.17"/><polyline class="cls-4" points="644.5 477.47 637.23 492.02 652.99 482.32"/><polyline class="cls-4" points="646.93 479.9 640.87 488.39 640.87 479.9 634.81 488.39"/><polyline class="cls-4" points="745.13 495.66 760.89 515.06 752.4 496.87 765.74 509"/><polyline class="cls-4" points="760.89 495.66 779.08 507.78 777.49 505.07 770.59 493.24 779.08 492.02 782.71 496.87 779.08 483.54 793.63 496.87 793.63 483.54 800.9 490.81"/><line class="cls-4" x1="793.63" y1="477.47" x2="806.96" y2="483.54"/><polyline class="cls-4" points="797.26 470.2 811.81 482.32 804.54 466.56 816.66 479.9 806.96 461.71 830 482.32 820.3 467.78 830 477.47 830 467.78 838.48 475.05 836.6 470.35 833.63 462.93"/><line class="cls-4" x1="785.14" y1="477.47" x2="793.63" y2="500.51"/><path class="cls-16" d="M1022.76,414.43s-15.76,7.28-26.67,35.16c0,0,9.14,10.68,13.34,9.7-1.22-6.06,10.91-31.52,24.24-35.16C1034.88,424.13,1022.76,414.43,1022.76,414.43Z"/><polygon class="cls-4" points="740.28 501.72 745.13 515.06 817.87 484.75 856.67 458.08 806.96 458.08 740.28 501.72"/><path class="cls-4" d="M690.57,512.63l20.62-12.12s-57-18.19-74-30.31-9.7-7.27-9.7-7.27L630,486S678.45,509,690.57,512.63Z"/><path class="cls-4" d="M600.86,290.77s104.26-77.59,217-12.12"/><path class="cls-4" d="M627.53,299.26s147.91-31.52,184.28,12.12,26.67,58.19,26.67,58.19"/><path class="cls-4" d="M631.17,310.17s114-10.91,124.27-19.4"/><path class="cls-4" d="M622.68,332s-19.39,7.28-15.76,0,151.55-21.82,161.25-31.52,3.27-8.71,3.27-8.71"/><path class="cls-4" d="M626.32,340.48s-18.19,2.42-14.55,0,17-8.49,94.57-20.61,87.29-21.1,87.29-21.46"/><path class="cls-4" d="M633.59,349s-10.91,4.85-10.91,0-2.42-7.27,13.34-13.33S795.81,319.2,805,305"/><path class="cls-4" d="M646.93,355s-14.55,4.85-17,2.42-13.34-15.76,33.94-20.61,145.49-8.49,149.12-17"/><path class="cls-4" d="M663.9,367.15s-29.09,12.12-23,0,38.79-12.12,57-10.91,94.56-9.7,106.69-24.25"/><path class="cls-4" d="M671.18,385.34s-35.16-9.7-7.28-15.77S806,377.16,832,340"/><path class="cls-4" d="M606.92,237.43S600.86,252,614.2,252s77.59-24.25,114-18.19,112.75,26.67,143.06,57"/></g></g></svg>