<svg xmlns="http://www.w3.org/2000/svg" viewBox="0 0 149.88 149.88">
  <g id="aac0c1cc-5e13-4080-abc3-def216c1f95d" data-name="Camada 2">
    <g id="ac180538-9462-49bd-aa34-76a439c6448f" data-name="publicdomainvectors.org">
      <circle cx="74.94" cy="74.94" r="74.94" transform="translate(-2.17 2.24) rotate(-1.69)" fill="#e9f6fe"/>
      <path d="M60.73,8.2c23.42,0,39.07,19,35,42.41S69.28,93,45.86,93s-39.08-19-35-42.4S37.31,8.2,60.73,8.2Z" fill="#f8fcff" fill-rule="evenodd"/>
      <path d="M133.61,28.32A74.94,74.94,0,1,1,6.36,105.19,75,75,0,0,0,133.61,28.32Z" fill="#d8eefb" fill-rule="evenodd"/>
      <path d="M116,57.5a12.17,12.17,0,1,0-12.17-12.17A12.2,12.2,0,0,0,116,57.5Z" fill="#fff" fill-rule="evenodd"/>
      <path d="M127.48,71.5a7.11,7.11,0,1,0-7.11-7.11A7.13,7.13,0,0,0,127.48,71.5Z" fill="#fff" fill-rule="evenodd"/>
    </g>
  </g>
</svg>
